<svg width="459" height="171" viewBox="0 0 459 171" fill="none" xmlns="http://www.w3.org/2000/svg">
<g clip-path="url(#clip0_1405_4221)">
<path fill-rule="evenodd" clip-rule="evenodd" d="M0 63.6052V79.0784L35.503 94.1058L60.9996 104.575L69.4217 146.909L81.2578 104.575L174.121 113.68L192.104 146.909L194.379 83.8634L204.848 90.0021L199.153 66.5609L159.786 24.0001L77.6182 26.9566L46.4362 40.8453L27.9973 24.4549L33.9121 49.4873L0 63.6052Z" fill="#2193B0"/>
</g>
<g clip-path="url(#clip1_1405_4221)">
<path d="M255.922 79.8171C259.493 79.8171 264.26 78.8437 267.291 78.6306C273.244 78.1931 277.9 76.5734 280.499 74.9478C285.369 71.6973 287.103 65.9587 287.103 64.0103C287.103 61.953 286.671 57.5161 282.446 52.9693C278.119 48.6401 270.541 48.0983 266.858 47.4478C263.608 46.6879 252.567 47.2291 249.103 47.3385C249.103 44.0931 249.103 41.0573 249.103 38.4639C249.536 21.8959 249.536 1.54128 249.536 1.54128C248.775 0.135948 246.504 0.245277 244.015 0.786613C242.499 1.10928 241.525 3.70795 241.525 3.70795C241.525 3.70795 241.307 16.9173 241.088 32.7239C240.984 46.0411 241.416 63.5786 240.984 74.9478C240.551 86.2078 241.307 95.7349 241.307 99.9587C241.416 103.964 243.583 103.093 243.583 103.093C243.583 103.093 244.988 103.636 247.369 102.771C248.671 102.338 249.645 103.421 249.536 95.1931C249.536 93.7863 249.103 89.6718 249.103 84.0411C253.651 89.1306 261.984 97.7921 266.858 101.036C273.244 105.15 281.692 102.12 284.504 98.6562C287.536 94.8693 286.884 87.1827 286.884 84.3639C286.884 81.5521 284.936 81.0103 284.936 81.0103C284.936 81.0103 282.988 80.6879 281.692 81.0103C280.499 81.3333 279.525 81.6614 279.525 84.6931C279.525 86.6401 280.499 90.9693 278.66 93.5682C276.708 96.2759 271.077 95.1931 268.155 93.3546C266.099 92.0521 259.171 84.1505 255.922 79.8171ZM248.993 54.9171C252.244 52.8598 266.858 53.7291 269.671 54.4838C272.488 55.2453 280.499 58.4895 280.499 63.4693C280.499 68.6666 275.629 70.4015 270.541 71.4838C265.775 72.6718 253.321 73.1041 248.993 72.5682C248.884 66.8281 248.884 60.765 248.993 54.9171Z" fill="#2193B0"/>
<path d="M343.4 4.5735C343.4 4.5735 344.703 1.21883 342.208 0.786827C339.936 0.458832 336.905 0.786827 336.041 1.00016C334.957 1.21883 334.629 1.5415 334.739 4.5735C334.848 7.39083 336.041 31.5308 335.389 39.0054C334.739 46.6882 335.499 73.0002 335.712 77.6507V79.0627C332.358 83.6095 326.077 86.7496 319.692 86.9642C311.681 87.0736 307.567 79.8174 306.051 73.8642C304.968 70.6147 304.208 50.9122 304.75 42.2507C305.4 33.8068 305.613 7.93216 305.4 5.11482C305.4 2.41216 304.968 1.00015 304.099 0.67749C302.801 0.245491 300.312 0.458824 298.255 0.67749C296.197 0.786819 297.389 4.5735 297.389 4.5735C297.389 4.5735 296.629 29.1508 297.389 44.1975C298.036 59.3548 296.307 74.948 298.687 81.6616C302.045 90.5362 309.405 94.5413 319.26 95.5163C326.838 96.2761 333.113 91.6199 336.041 88.9122C336.041 94.3283 336.041 98.7652 335.712 100.604C334.957 103.636 337.556 104.287 337.556 104.287C337.556 104.287 340.692 104.396 341.884 104.287C342.968 104.074 344.807 103.636 344.703 101.036C344.593 98.6564 343.619 73.4319 343.832 68.7762C343.941 63.907 343.4 37.7028 343.4 29.4735C343.4 21.2455 343.619 7.50017 343.4 4.5735Z" fill="#2193B0"/>
<path d="M356.717 99.6307C356.717 99.6307 355.203 102.99 357.692 103.421C360.181 103.636 362.999 103.421 364.077 103.203C364.838 102.99 365.379 102.448 365.269 99.6307C364.946 96.7079 364.077 72.7813 364.515 64.9839C365.269 57.3027 364.405 31.0987 364.296 26.4427V25.2547C367.436 20.7081 373.822 17.4587 380.212 17.2401C388.332 17.1361 392.337 24.4947 393.853 30.2347C394.608 33.5881 395.801 53.2922 395.045 61.6307C394.395 70.1829 394.285 96.2761 394.395 98.8746C394.504 101.688 394.608 103.203 395.801 103.531C397.103 103.745 399.484 103.636 401.541 103.531C403.708 103.421 402.405 99.6307 402.405 99.6307C402.405 99.6307 403.056 75.0574 402.405 59.7922C401.864 44.7402 403.597 29.2601 401.108 22.5467C397.749 13.8854 390.493 9.6614 380.427 8.57874C373.067 8.03606 366.786 12.6934 364.077 15.2921C364.077 9.88007 364.077 4.57339 364.296 2.84406C364.838 -0.0826035 362.348 0.0267334 362.348 0.0267334C362.348 0.0267334 359.099 0.354729 358.015 0.0267334C356.936 -0.0826035 354.984 0.0267334 355.093 2.41206C355.203 4.9014 356.286 30.7761 356.176 35.4321C355.744 40.0829 356.717 66.6094 356.717 74.8386C356.717 82.9589 356.286 96.7079 356.717 99.6307Z" fill="#2193B0"/>
<path d="M422.108 28.3908C422.108 28.3908 450.911 28.1774 453.181 28.1774C455.239 28.1774 456.864 28.5001 457.296 25.7974C457.837 23.1974 455.239 7.93212 450.692 4.68279C446.255 1.43212 445.171 0.458794 438.999 0.35479C432.717 0.136124 425.468 1.76012 419.837 8.68813C415.291 14.4268 412.26 33.5881 412.905 54.484C413.556 75.2709 413.775 92.1616 420.269 98.0053C426.875 103.745 440.624 103.745 446.577 99.4162C452.427 95.0829 455.889 84.7974 456.432 79.708C456.864 74.7293 457.187 57.5162 456.864 56.2189C456.645 55.0266 455.78 54.484 454.588 54.484C453.291 54.2709 451.775 54.484 451.233 54.484C450.692 54.484 449.285 55.2454 449.395 56.2189C449.608 57.3028 450.041 69.3173 449.395 75.0574C448.744 80.7922 446.577 91.6198 441.817 93.4589C437.264 95.4121 431.203 95.5162 426.875 92.1616C421.135 87.1829 421.567 81.0105 420.921 76.1361C420.269 71.2652 419.728 55.4589 420.051 41.3856C421.244 30.7761 422.108 28.3908 422.108 28.3908ZM423.192 20.7081C423.301 19.4068 423.624 18.1095 424.927 14.9695C426.441 12.1508 430.124 7.82279 438.676 7.60413C447.009 7.50012 449.936 18.9735 449.936 21.1401C446.577 21.7868 423.192 20.7081 423.192 20.7081Z" fill="#2193B0"/>
<path d="M251.301 126.172C251.301 126.172 257.203 125.49 257.541 131.588C257.927 137.735 257.927 139.041 257.927 139.041C257.927 139.041 257.64 140.057 258.655 140.203C259.765 140.396 260.785 140.203 260.785 140.203C260.785 140.203 261.264 140.151 261.171 139.188C261.124 138.172 261.463 130.235 260.395 128.203C259.285 126.219 259.187 125.588 257.446 124.427C255.608 123.312 253.187 123.027 251.493 122.974C249.75 122.88 246.993 123.604 245.395 124.912C243.269 126.604 242.541 130.041 241.963 132.027C241.379 134.011 240.848 137.828 240.848 145.62C240.848 153.412 241.525 160.912 242.155 163.62C243.025 167.005 247.427 169.281 251.64 169.188C255.946 169.136 258.364 167.298 259.041 166.136C259.671 165.027 261.264 163.427 261.411 158.151C261.556 152.927 261.171 151.136 261.171 150.12C261.171 149.104 260.687 149.203 260.301 149.104C259.963 149.011 258.655 149.011 258.171 149.104C257.687 149.203 257.446 149.735 257.541 150.219C257.64 150.604 257.979 155.588 257.979 156.896C257.979 158.151 257.927 161.489 256.671 162.943C255.364 164.443 254.301 165.943 250.817 165.943C247.088 165.943 245.155 162.027 244.572 157.136C243.895 152.151 244.041 146.104 244.14 143.057C244.187 139.912 245.108 132.557 245.832 130.765C246.556 128.927 248.009 126.604 251.301 126.172Z" fill="#2193B0"/>
<path d="M286.817 146.396C287.103 127.473 283.187 122.833 278.446 122.833C273.801 122.833 265.911 124.188 265.911 147.12C265.911 168.312 270.556 169.38 278.203 168.749C284.103 168.219 286.624 160.864 286.817 146.396ZM283.765 145.912C283.765 145.912 283.187 153.989 282.217 157.719C281.25 161.489 279.993 164.588 276.703 164.926C272.588 165.364 271.525 163.041 270.124 158.15C268.765 153.312 269.203 149.541 269.446 145.912C269.687 141.989 269.493 139.912 270.801 134.735C272.103 129.412 273.946 127.526 276.703 126.849C280.088 126.12 283.479 129.51 283.765 145.912Z" fill="#2193B0"/>
<path d="M292.041 167.251C292.041 167.251 291.364 168.75 292.479 168.943C293.588 169.041 294.848 168.943 295.332 168.85C295.671 168.75 295.911 168.505 295.864 167.251C295.717 165.943 295.332 155.251 295.525 151.765C295.864 148.328 295.479 136.62 295.427 134.541V134.011C296.832 131.974 299.687 130.527 302.541 130.427C306.171 130.38 307.963 133.672 308.64 136.235C308.979 137.735 309.51 146.541 309.171 150.265C308.879 154.088 308.832 165.75 308.879 166.912C308.927 168.167 308.979 168.85 309.51 168.989C310.088 169.088 311.155 169.041 312.072 168.989C313.041 168.943 312.463 167.251 312.463 167.251C312.463 167.251 312.75 156.265 312.463 149.443C312.217 142.719 312.993 135.797 311.879 132.797C310.379 128.927 307.14 127.041 302.64 126.557C299.348 126.312 296.541 128.396 295.332 129.557C295.332 127.136 295.332 124.765 295.427 123.99C295.671 122.688 294.556 122.735 294.556 122.735C294.556 122.735 293.103 122.88 292.624 122.735C292.14 122.688 291.264 122.735 291.317 123.797C291.364 124.912 291.848 136.474 291.801 138.557C291.603 140.636 292.041 152.489 292.041 156.167C292.041 159.798 291.848 165.943 292.041 167.251Z" fill="#2193B0"/>
<path d="M336.848 137.297C336.848 137.297 337.088 136.427 337.041 134.828C336.848 133.281 336.51 128.057 334.525 125.49C332.441 122.973 329.541 122.88 326.301 122.973C323.103 123.265 320.687 124.188 319.233 127.041C317.687 129.896 318.025 133.281 318.364 135.604C318.603 138.12 321.025 140.057 323.588 141.943C326.103 143.88 328.864 145.235 330.509 146.781C332.056 148.328 333.072 151.719 333.171 154.864C333.317 158.151 332.879 160.088 331.817 162.12C330.703 164.151 329.103 165.312 326.103 165.027C323.25 164.688 321.801 160.328 321.51 159.027C321.217 157.667 320.927 153.167 320.927 150.557C320.927 147.896 319.427 148.281 319.427 148.281L318.411 148.328C318.411 148.328 317.103 148.281 317.103 149.297C316.817 157.041 318.072 160.765 318.364 161.973C318.556 163.041 320.25 166.427 322.911 167.735C325.671 169.188 329.395 169.136 332.64 167.443C335.78 165.604 337.041 160.38 337.233 157.912C337.427 155.489 337.14 151.473 335.493 146.973C333.655 142.573 326.441 138.651 324.75 137.297C322.817 135.943 321.171 134.588 321.51 130.573C321.895 126.703 327.463 125.927 328.619 125.973C329.78 126.12 331.233 126.172 332.395 129.12C333.603 132.12 332.927 135.849 332.879 137.297C332.733 138.849 333.171 138.557 333.895 138.849C334.671 138.989 335.441 138.849 336.217 138.849C337.041 138.797 336.848 137.297 336.848 137.297Z" fill="#2193B0"/>
<path d="M362.64 124.765C362.64 124.765 363.217 123.265 362.103 123.074C361.088 122.927 359.734 123.074 359.348 123.172C358.864 123.265 358.717 123.412 358.765 124.765C358.817 126.027 359.348 136.812 359.056 140.151C358.765 143.588 359.103 155.35 359.203 157.427V158.057C357.703 160.088 354.895 161.489 352.041 161.588C348.457 161.636 346.619 158.396 345.941 155.735C345.457 154.281 345.119 145.474 345.364 141.604C345.655 137.828 345.75 126.265 345.655 125.01C345.655 123.797 345.457 123.172 345.072 123.027C344.493 122.833 343.379 122.927 342.463 123.027C341.541 123.074 342.072 124.765 342.072 124.765C342.072 124.765 341.734 135.75 342.072 142.474C342.364 149.251 341.588 156.219 342.655 159.219C344.155 163.188 347.441 164.973 351.848 165.412C355.234 165.75 358.041 163.667 359.348 162.459C359.348 164.88 359.348 166.864 359.203 167.688C358.864 169.041 360.025 169.328 360.025 169.328C360.025 169.328 361.427 169.38 361.957 169.328C362.441 169.235 363.264 169.041 363.217 167.88C363.171 166.812 362.734 155.541 362.832 153.459C362.879 151.281 362.64 139.574 362.64 135.896C362.64 132.219 362.734 126.074 362.64 124.765Z" fill="#2193B0"/>
<path d="M367.864 123.459C367.864 123.459 367.864 132.797 368.056 140.297C368.25 147.849 368.25 163.959 367.864 166.188C367.427 168.219 368.25 169.041 368.979 169.136C369.411 169.328 371.203 169.328 371.203 169.328C371.203 169.328 372.556 169.573 372.556 167.636C372.556 165.749 372.556 160.864 372.411 155.636C372.264 150.51 372.75 143.781 372.264 137.735C371.493 131.588 372.264 124.38 372.264 124.38C372.264 124.38 371.493 123.12 370.717 123.12C369.895 123.12 368.25 122.88 367.864 123.459Z" fill="#2193B0"/>
<path d="M384.703 123.51C384.703 123.51 384.703 125.688 384.749 128.781C381.749 128.735 378.703 128.636 378.703 128.636C376.379 128.636 376.619 129.51 376.619 129.51C376.619 129.51 376.525 131.01 376.765 131.443C377.009 131.926 377.155 131.828 377.78 131.973C378.264 132.073 382.088 132.073 384.749 132.12L384.895 140.15C385.088 147.557 385.088 163.573 384.703 165.749C384.317 167.781 385.088 168.505 385.619 168.65C386.155 168.896 387.556 168.896 387.556 168.896C387.556 168.896 388.864 169.136 388.864 167.203C388.864 165.265 388.864 160.38 388.671 155.25C388.479 150.219 389.009 143.588 388.479 137.588C388.28 135.849 388.233 133.912 388.233 132.073C390.848 132.026 395.541 131.735 395.927 131.735C396.509 131.735 396.703 131.203 396.941 131.01C397.135 130.912 396.941 129.797 396.941 129.265C396.941 128.735 396.025 128.588 396.025 128.588C396.025 128.588 392.493 128.396 390.072 128.636C389.733 128.688 389.009 128.735 388.233 128.735C388.332 126.219 388.479 124.328 388.479 124.328C388.479 124.328 387.941 123.12 387.171 123.12C386.541 123.12 385.088 122.88 384.703 123.51Z" fill="#2193B0"/>
<path d="M404.203 122.88C404.203 122.88 401.056 123.12 401.203 125.443C401.493 127.765 404.056 127.959 405.119 127.765C406.187 127.574 406.765 126.459 406.765 125.251C406.765 123.943 405.703 123.12 404.203 122.88ZM402.217 168.85C402.603 169.38 404.78 169.235 405.509 169.235C406.233 169.235 406.379 168.312 406.379 168.312C406.379 168.312 406.088 162.797 406.088 156.459C406.088 151.188 406.233 148.188 406.379 143.927C406.572 139.574 406.379 133.62 406.379 131.927C406.379 130.427 405.119 130.574 405.119 130.574C405.119 130.574 403.717 130.574 403.135 130.765C402.603 130.912 401.879 131.541 402.217 133.235C402.603 135.12 402.603 148.474 402.411 154.864C402.217 161.104 402.217 168.85 402.217 168.85Z" fill="#2193B0"/>
<path d="M411.703 167.251C411.703 167.251 411.025 168.75 412.135 168.943C413.249 169.041 414.509 168.943 414.993 168.85C415.332 168.75 415.572 168.505 415.525 167.251C415.379 165.943 414.993 155.251 415.187 151.765C415.525 148.328 415.135 136.62 415.088 134.541V134.011C416.493 131.974 419.348 130.527 422.203 130.427C425.832 130.38 427.619 133.672 428.296 136.235C428.635 137.735 429.171 146.541 428.832 150.265C428.541 154.088 428.493 165.75 428.541 166.912C428.588 168.167 428.635 168.85 429.171 168.989C429.749 169.088 430.812 169.041 431.733 168.989C432.703 168.943 432.119 167.251 432.119 167.251C432.119 167.251 432.411 156.265 432.119 149.443C431.879 142.719 432.655 135.797 431.541 132.797C430.041 128.927 426.796 127.041 422.296 126.557C419.009 126.312 416.203 128.396 414.993 129.557C414.993 127.136 414.993 124.765 415.088 123.99C415.332 122.688 414.217 122.735 414.217 122.735C414.217 122.735 412.765 122.88 412.28 122.735C411.796 122.688 410.927 122.735 410.973 123.797C411.025 124.912 411.509 136.474 411.457 138.557C411.264 140.636 411.703 152.489 411.703 156.167C411.703 159.798 411.509 165.943 411.703 167.251Z" fill="#2193B0"/>
<path d="M453.895 129.797C453.895 129.797 453.941 136.041 453.895 137.203C452.973 137.541 448.28 137.489 445.135 137.251C441.848 136.912 440.635 136.38 441.312 133.188C441.848 130.088 445.135 129.943 446.588 129.797C448.088 129.703 453.895 129.797 453.895 129.797ZM453.941 126.797C453.941 126.797 451.233 126.797 446.78 126.797C442.379 126.99 440.395 127.959 439.28 129.312C437.687 131.203 437.733 134.49 437.733 134.49C437.733 134.49 437.635 136.812 438.556 138.12C439.473 139.328 441.457 140.35 443.635 140.88C445.864 141.364 454.041 141.364 454.041 141.364C454.041 141.364 453.941 151.088 454.041 154.864C454.135 158.541 453.411 161.104 452.348 162.459C450.941 164.203 449.348 165.459 447.171 165.798C445.812 165.896 443.927 165.459 441.848 163.088C439.957 160.765 440.541 156.75 440.395 154.864C440.395 153.027 440.588 150.167 440.395 149.35C440.348 148.574 439.572 148.574 439.572 148.574H438.119C437.441 148.574 437.103 149.35 437.103 149.35C437.103 149.35 436.233 159.896 438.556 164.974C440.395 169.136 444.993 168.943 446.588 169.088C448.233 169.188 450.457 169.088 452.973 166.812C455.78 164.489 457.088 162.511 457.332 154.959C457.427 150.989 457.332 140.636 457.088 137.636C456.993 134.735 457.135 125.203 457.135 124.088C457.135 122.88 456.364 123.074 456.364 123.074C456.364 123.074 455.733 123.074 454.957 123.172C454.135 123.219 453.749 123.703 453.941 124.235C454.041 124.672 453.941 126.797 453.941 126.797Z" fill="#2193B0"/>
</g>
<defs>
<clipPath id="clip0_1405_4221">
<rect width="204.848" height="122.909" fill="white" transform="translate(0 24)"/>
</clipPath>
<clipPath id="clip1_1405_4221">
<rect width="217.333" height="170.667" fill="white" transform="translate(240.848)"/>
</clipPath>
</defs>
</svg>
