<svg width="1797" height="561" viewBox="0 0 1797 561" fill="none" xmlns="http://www.w3.org/2000/svg">
<rect width="1796.25" height="560.625" rx="45.4071" fill="url(#paint0_linear_105_1137)"/>
<path d="M185.891 115.331H208.832C213.632 115.331 217.752 116.054 221.192 117.5C224.633 118.945 227.278 121.085 229.128 123.918C230.979 126.751 231.904 130.235 231.904 134.369C231.904 137.636 231.325 140.47 230.169 142.869C229.013 145.269 227.379 147.278 225.269 148.897C223.187 150.516 220.729 151.788 217.896 152.714L214.167 154.622H193.914L193.827 145.211H208.963C211.42 145.211 213.458 144.777 215.077 143.91C216.696 143.043 217.911 141.843 218.72 140.311C219.559 138.778 219.978 137.029 219.978 135.063C219.978 132.953 219.573 131.131 218.763 129.599C217.954 128.038 216.725 126.838 215.077 125.999C213.429 125.161 211.348 124.742 208.832 124.742H197.817V178.474H185.891V115.331ZM221.539 178.474L206.924 150.198L219.544 150.155L234.332 177.866V178.474H221.539ZM262.564 179.341C259.008 179.341 255.813 178.763 252.98 177.606C250.147 176.45 247.733 174.845 245.738 172.793C243.772 170.711 242.254 168.297 241.184 165.55C240.143 162.775 239.623 159.797 239.623 156.617V154.882C239.623 151.268 240.143 147.987 241.184 145.038C242.225 142.06 243.7 139.501 245.608 137.362C247.516 135.222 249.8 133.574 252.46 132.418C255.12 131.261 258.054 130.683 261.263 130.683C264.588 130.683 267.523 131.247 270.067 132.374C272.611 133.473 274.736 135.034 276.442 137.058C278.147 139.082 279.434 141.51 280.301 144.344C281.169 147.148 281.602 150.256 281.602 153.668V158.481H244.827V150.589H270.327V149.721C270.269 147.9 269.922 146.237 269.286 144.734C268.65 143.202 267.667 141.987 266.337 141.091C265.007 140.166 263.287 139.703 261.177 139.703C259.471 139.703 257.982 140.079 256.71 140.831C255.467 141.554 254.426 142.595 253.587 143.953C252.778 145.283 252.171 146.873 251.766 148.724C251.361 150.574 251.159 152.627 251.159 154.882V156.617C251.159 158.583 251.419 160.404 251.939 162.081C252.489 163.758 253.284 165.218 254.325 166.461C255.394 167.675 256.666 168.629 258.141 169.323C259.644 169.988 261.35 170.321 263.258 170.321C265.658 170.321 267.826 169.858 269.763 168.933C271.729 167.979 273.435 166.577 274.881 164.726L280.648 170.711C279.665 172.156 278.335 173.544 276.659 174.874C275.011 176.204 273.016 177.288 270.674 178.127C268.332 178.936 265.629 179.341 262.564 179.341ZM315.125 168.499V146.859C315.125 145.269 314.85 143.896 314.301 142.739C313.752 141.583 312.913 140.686 311.786 140.05C310.658 139.414 309.227 139.096 307.493 139.096C305.96 139.096 304.616 139.357 303.459 139.877C302.332 140.397 301.465 141.135 300.857 142.089C300.25 143.014 299.947 144.084 299.947 145.298H288.454C288.454 143.361 288.917 141.525 289.842 139.79C290.767 138.027 292.083 136.465 293.789 135.107C295.523 133.719 297.59 132.635 299.99 131.854C302.419 131.073 305.136 130.683 308.143 130.683C311.699 130.683 314.865 131.29 317.64 132.505C320.445 133.69 322.642 135.482 324.232 137.882C325.851 140.282 326.661 143.303 326.661 146.946V167.415C326.661 169.757 326.805 171.766 327.094 173.443C327.412 175.091 327.875 176.522 328.482 177.736V178.474H316.816C316.267 177.288 315.848 175.785 315.559 173.963C315.27 172.113 315.125 170.292 315.125 168.499ZM316.73 149.895L316.816 156.703H309.574C307.782 156.703 306.206 156.891 304.847 157.267C303.488 157.614 302.375 158.134 301.508 158.828C300.641 159.493 299.99 160.303 299.556 161.257C299.123 162.182 298.906 163.237 298.906 164.423C298.906 165.579 299.166 166.62 299.686 167.545C300.236 168.47 301.016 169.208 302.028 169.757C303.069 170.277 304.283 170.537 305.671 170.537C307.695 170.537 309.459 170.133 310.962 169.323C312.465 168.485 313.636 167.473 314.475 166.287C315.313 165.102 315.761 163.975 315.819 162.905L319.115 167.849C318.71 169.034 318.103 170.292 317.294 171.622C316.484 172.952 315.443 174.195 314.171 175.351C312.899 176.508 311.367 177.462 309.574 178.213C307.782 178.965 305.7 179.341 303.329 179.341C300.294 179.341 297.576 178.734 295.176 177.52C292.777 176.305 290.883 174.643 289.495 172.532C288.107 170.422 287.414 168.022 287.414 165.333C287.414 162.847 287.876 160.65 288.801 158.742C289.727 156.833 291.1 155.229 292.921 153.928C294.743 152.598 296.998 151.6 299.686 150.936C302.404 150.242 305.512 149.895 309.01 149.895H316.73ZM365.127 168.499V111.862H376.663V178.474H366.255L365.127 168.499ZM334.987 155.576V154.665C334.987 151.08 335.392 147.828 336.202 144.908C337.04 141.959 338.254 139.429 339.844 137.318C341.435 135.208 343.357 133.574 345.612 132.418C347.896 131.261 350.484 130.683 353.375 130.683C356.179 130.683 358.622 131.247 360.704 132.374C362.814 133.502 364.607 135.107 366.081 137.188C367.585 139.27 368.785 141.742 369.681 144.604C370.577 147.437 371.228 150.56 371.632 153.971V156.443C371.228 159.768 370.577 162.818 369.681 165.594C368.785 168.369 367.585 170.798 366.081 172.879C364.607 174.932 362.814 176.522 360.704 177.65C358.593 178.777 356.121 179.341 353.288 179.341C350.426 179.341 347.853 178.748 345.569 177.563C343.314 176.378 341.391 174.715 339.801 172.576C338.24 170.436 337.04 167.921 336.202 165.03C335.392 162.139 334.987 158.987 334.987 155.576ZM346.48 154.665V155.576C346.48 157.6 346.653 159.493 347 161.257C347.347 163.02 347.911 164.582 348.691 165.941C349.472 167.27 350.469 168.311 351.684 169.063C352.927 169.815 354.43 170.191 356.194 170.191C358.449 170.191 360.299 169.699 361.745 168.716C363.219 167.704 364.361 166.331 365.171 164.596C365.98 162.833 366.501 160.852 366.732 158.655V151.846C366.616 150.112 366.313 148.507 365.821 147.032C365.359 145.558 364.694 144.286 363.826 143.216C362.988 142.146 361.947 141.308 360.704 140.701C359.461 140.094 357.986 139.79 356.281 139.79C354.517 139.79 353.014 140.18 351.77 140.961C350.527 141.713 349.515 142.768 348.735 144.127C347.954 145.486 347.376 147.061 347 148.854C346.653 150.646 346.48 152.583 346.48 154.665ZM400.775 173.27L413.352 131.55H425.624L406.803 185.586C406.369 186.742 405.806 188 405.112 189.359C404.447 190.718 403.551 192.004 402.423 193.218C401.296 194.462 399.879 195.474 398.173 196.254C396.496 197.035 394.458 197.425 392.058 197.425C391.018 197.425 390.092 197.353 389.283 197.208C388.473 197.064 387.62 196.876 386.724 196.644V188.058C387.013 188.087 387.346 188.101 387.722 188.101C388.126 188.13 388.473 188.144 388.762 188.144C390.439 188.144 391.827 187.942 392.926 187.537C394.024 187.162 394.906 186.54 395.571 185.673C396.265 184.834 396.843 183.736 397.306 182.377L400.775 173.27ZM394.574 131.55L405.199 166.114L407.063 178.213L399.171 179.645L382.214 131.55H394.574ZM475.497 131.55V139.79H448.609V131.55H475.497ZM455.808 120.015H467.3V164.943C467.3 166.331 467.488 167.401 467.864 168.152C468.24 168.904 468.804 169.41 469.555 169.67C470.307 169.93 471.203 170.06 472.244 170.06C472.996 170.06 473.69 170.017 474.326 169.93C474.962 169.844 475.497 169.757 475.93 169.67L475.974 178.257C475.02 178.575 473.935 178.835 472.721 179.037C471.536 179.24 470.191 179.341 468.688 179.341C466.115 179.341 463.86 178.907 461.923 178.04C459.986 177.144 458.482 175.713 457.413 173.747C456.343 171.752 455.808 169.121 455.808 165.854V120.015ZM479.963 155.489V154.578C479.963 151.138 480.455 147.972 481.438 145.081C482.421 142.161 483.852 139.631 485.731 137.492C487.61 135.352 489.909 133.69 492.627 132.505C495.344 131.29 498.438 130.683 501.907 130.683C505.434 130.683 508.557 131.29 511.274 132.505C514.021 133.69 516.334 135.352 518.213 137.492C520.092 139.631 521.524 142.161 522.507 145.081C523.49 147.972 523.981 151.138 523.981 154.578V155.489C523.981 158.901 523.49 162.066 522.507 164.986C521.524 167.878 520.092 170.407 518.213 172.576C516.334 174.715 514.036 176.378 511.318 177.563C508.6 178.748 505.492 179.341 501.994 179.341C498.525 179.341 495.417 178.748 492.67 177.563C489.923 176.378 487.61 174.715 485.731 172.576C483.852 170.407 482.421 167.878 481.438 164.986C480.455 162.066 479.963 158.901 479.963 155.489ZM491.412 154.578V155.489C491.412 157.542 491.615 159.464 492.019 161.257C492.424 163.049 493.046 164.625 493.884 165.984C494.723 167.343 495.807 168.412 497.137 169.193C498.496 169.945 500.115 170.321 501.994 170.321C503.844 170.321 505.434 169.945 506.764 169.193C508.094 168.412 509.178 167.343 510.017 165.984C510.884 164.625 511.52 163.049 511.925 161.257C512.33 159.464 512.532 157.542 512.532 155.489V154.578C512.532 152.555 512.33 150.661 511.925 148.897C511.52 147.105 510.884 145.529 510.017 144.17C509.178 142.783 508.08 141.698 506.721 140.918C505.391 140.108 503.786 139.703 501.907 139.703C500.057 139.703 498.467 140.108 497.137 140.918C495.807 141.698 494.723 142.783 493.884 144.17C493.046 145.529 492.424 147.105 492.019 148.897C491.615 150.661 491.412 152.555 491.412 154.578ZM580.228 115.331V178.474H568.346V115.331H580.228ZM599.83 115.331V124.742H548.96V115.331H599.83ZM615.312 141.135V178.474H603.863V131.55H614.705L615.312 141.135ZM629.58 131.247L629.406 141.915C628.77 141.8 628.048 141.713 627.238 141.655C626.457 141.597 625.72 141.568 625.026 141.568C623.263 141.568 621.716 141.814 620.386 142.305C619.056 142.768 617.943 143.447 617.047 144.344C616.179 145.24 615.514 146.339 615.052 147.64C614.589 148.912 614.329 150.357 614.271 151.976L611.799 151.673C611.799 148.695 612.103 145.934 612.71 143.39C613.317 140.845 614.199 138.619 615.355 136.711C616.512 134.803 617.957 133.328 619.692 132.288C621.456 131.218 623.48 130.683 625.764 130.683C626.4 130.683 627.079 130.741 627.802 130.857C628.554 130.943 629.146 131.073 629.58 131.247ZM660.24 168.499V146.859C660.24 145.269 659.966 143.896 659.416 142.739C658.867 141.583 658.029 140.686 656.901 140.05C655.774 139.414 654.342 139.096 652.608 139.096C651.075 139.096 649.731 139.357 648.575 139.877C647.447 140.397 646.58 141.135 645.973 142.089C645.365 143.014 645.062 144.084 645.062 145.298H633.57C633.57 143.361 634.032 141.525 634.957 139.79C635.883 138.027 637.198 136.465 638.904 135.107C640.638 133.719 642.706 132.635 645.105 131.854C647.534 131.073 650.251 130.683 653.258 130.683C656.814 130.683 659.98 131.29 662.756 132.505C665.56 133.69 667.757 135.482 669.347 137.882C670.967 140.282 671.776 143.303 671.776 146.946V167.415C671.776 169.757 671.921 171.766 672.21 173.443C672.528 175.091 672.99 176.522 673.597 177.736V178.474H661.932C661.382 177.288 660.963 175.785 660.674 173.963C660.385 172.113 660.24 170.292 660.24 168.499ZM661.845 149.895L661.932 156.703H654.689C652.897 156.703 651.321 156.891 649.962 157.267C648.604 157.614 647.49 158.134 646.623 158.828C645.756 159.493 645.105 160.303 644.672 161.257C644.238 162.182 644.021 163.237 644.021 164.423C644.021 165.579 644.281 166.62 644.802 167.545C645.351 168.47 646.132 169.208 647.144 169.757C648.184 170.277 649.399 170.537 650.786 170.537C652.81 170.537 654.574 170.133 656.077 169.323C657.581 168.485 658.751 167.473 659.59 166.287C660.428 165.102 660.876 163.975 660.934 162.905L664.23 167.849C663.825 169.034 663.218 170.292 662.409 171.622C661.599 172.952 660.558 174.195 659.286 175.351C658.014 176.508 656.482 177.462 654.689 178.213C652.897 178.965 650.815 179.341 648.445 179.341C645.409 179.341 642.691 178.734 640.292 177.52C637.892 176.305 635.998 174.643 634.61 172.532C633.223 170.422 632.529 168.022 632.529 165.333C632.529 162.847 632.991 160.65 633.917 158.742C634.842 156.833 636.215 155.229 638.036 153.928C639.858 152.598 642.113 151.6 644.802 150.936C647.519 150.242 650.627 149.895 654.126 149.895H661.845ZM693.33 141.568V178.474H681.881V131.55H692.636L693.33 141.568ZM691.508 153.321H688.125C688.154 149.909 688.617 146.816 689.513 144.04C690.409 141.265 691.667 138.879 693.286 136.885C694.934 134.89 696.886 133.357 699.141 132.288C701.396 131.218 703.911 130.683 706.687 130.683C708.942 130.683 710.98 131.001 712.801 131.637C714.623 132.273 716.184 133.285 717.485 134.673C718.815 136.061 719.827 137.882 720.521 140.137C721.243 142.363 721.605 145.11 721.605 148.377V178.474H710.069V148.29C710.069 146.151 709.751 144.459 709.115 143.216C708.508 141.973 707.612 141.091 706.426 140.571C705.27 140.05 703.839 139.79 702.133 139.79C700.369 139.79 698.823 140.152 697.493 140.874C696.192 141.568 695.093 142.537 694.197 143.78C693.33 145.023 692.665 146.454 692.202 148.073C691.739 149.692 691.508 151.441 691.508 153.321ZM757.513 165.637C757.513 164.654 757.253 163.772 756.732 162.992C756.212 162.211 755.229 161.503 753.783 160.867C752.367 160.202 750.285 159.58 747.538 159.002C745.11 158.481 742.869 157.831 740.816 157.05C738.764 156.27 737 155.33 735.526 154.231C734.051 153.104 732.895 151.788 732.056 150.285C731.247 148.753 730.842 146.989 730.842 144.994C730.842 143.057 731.261 141.236 732.1 139.53C732.938 137.795 734.152 136.277 735.743 134.976C737.333 133.647 739.27 132.606 741.554 131.854C743.838 131.073 746.411 130.683 749.273 130.683C753.263 130.683 756.689 131.334 759.551 132.635C762.442 133.936 764.654 135.728 766.186 138.012C767.719 140.267 768.485 142.811 768.485 145.645H757.036C757.036 144.402 756.747 143.274 756.168 142.262C755.619 141.25 754.766 140.441 753.61 139.834C752.453 139.198 750.993 138.879 749.23 138.879C747.64 138.879 746.295 139.14 745.197 139.66C744.127 140.18 743.317 140.86 742.768 141.698C742.219 142.537 741.944 143.462 741.944 144.474C741.944 145.226 742.089 145.905 742.378 146.512C742.696 147.09 743.202 147.625 743.896 148.117C744.589 148.608 745.529 149.056 746.714 149.461C747.929 149.866 749.418 150.256 751.181 150.632C754.679 151.326 757.73 152.251 760.332 153.407C762.963 154.535 765.015 156.038 766.49 157.918C767.964 159.797 768.702 162.197 768.702 165.117C768.702 167.198 768.253 169.106 767.357 170.841C766.461 172.547 765.16 174.036 763.454 175.308C761.748 176.58 759.71 177.577 757.339 178.3C754.969 178.994 752.294 179.341 749.316 179.341C745.009 179.341 741.366 178.575 738.388 177.043C735.41 175.481 733.155 173.515 731.623 171.145C730.09 168.745 729.324 166.259 729.324 163.685H740.296C740.383 165.507 740.874 166.967 741.771 168.066C742.667 169.164 743.794 169.959 745.153 170.451C746.541 170.913 748.001 171.145 749.533 171.145C751.268 171.145 752.728 170.913 753.913 170.451C755.099 169.959 755.995 169.309 756.602 168.499C757.209 167.661 757.513 166.707 757.513 165.637ZM792.423 178.474H780.888V127.214C780.888 123.687 781.567 120.723 782.926 118.323C784.285 115.895 786.222 114.059 788.737 112.816C791.252 111.573 794.216 110.951 797.627 110.951C798.755 110.951 799.825 111.023 800.836 111.168C801.877 111.312 802.904 111.515 803.916 111.775L803.699 120.492C803.149 120.347 802.542 120.246 801.877 120.188C801.241 120.13 800.533 120.102 799.752 120.102C798.191 120.102 796.861 120.376 795.763 120.926C794.664 121.475 793.825 122.284 793.247 123.354C792.698 124.395 792.423 125.681 792.423 127.214V178.474ZM801.921 131.55V139.79H773.819V131.55H801.921ZM806.951 155.489V154.578C806.951 151.138 807.443 147.972 808.426 145.081C809.409 142.161 810.84 139.631 812.719 137.492C814.598 135.352 816.897 133.69 819.614 132.505C822.332 131.29 825.426 130.683 828.895 130.683C832.422 130.683 835.545 131.29 838.262 132.505C841.009 133.69 843.322 135.352 845.201 137.492C847.08 139.631 848.511 142.161 849.494 145.081C850.477 147.972 850.969 151.138 850.969 154.578V155.489C850.969 158.901 850.477 162.066 849.494 164.986C848.511 167.878 847.08 170.407 845.201 172.576C843.322 174.715 841.023 176.378 838.306 177.563C835.588 178.748 832.48 179.341 828.982 179.341C825.512 179.341 822.404 178.748 819.658 177.563C816.911 176.378 814.598 174.715 812.719 172.576C810.84 170.407 809.409 167.878 808.426 164.986C807.443 162.066 806.951 158.901 806.951 155.489ZM818.4 154.578V155.489C818.4 157.542 818.603 159.464 819.007 161.257C819.412 163.049 820.034 164.625 820.872 165.984C821.711 167.343 822.795 168.412 824.125 169.193C825.483 169.945 827.103 170.321 828.982 170.321C830.832 170.321 832.422 169.945 833.752 169.193C835.082 168.412 836.166 167.343 837.005 165.984C837.872 164.625 838.508 163.049 838.913 161.257C839.318 159.464 839.52 157.542 839.52 155.489V154.578C839.52 152.555 839.318 150.661 838.913 148.897C838.508 147.105 837.872 145.529 837.005 144.17C836.166 142.783 835.068 141.698 833.709 140.918C832.379 140.108 830.774 139.703 828.895 139.703C827.045 139.703 825.455 140.108 824.125 140.918C822.795 141.698 821.711 142.783 820.872 144.17C820.034 145.529 819.412 147.105 819.007 148.897C818.603 150.661 818.4 152.555 818.4 154.578ZM870.744 141.135V178.474H859.295V131.55H870.137L870.744 141.135ZM885.012 131.247L884.839 141.915C884.202 141.8 883.48 141.713 882.67 141.655C881.89 141.597 881.152 141.568 880.458 141.568C878.695 141.568 877.148 141.814 875.818 142.305C874.488 142.768 873.375 143.447 872.479 144.344C871.612 145.24 870.947 146.339 870.484 147.64C870.021 148.912 869.761 150.357 869.703 151.976L867.232 151.673C867.232 148.695 867.535 145.934 868.142 143.39C868.749 140.845 869.631 138.619 870.788 136.711C871.944 134.803 873.39 133.328 875.124 132.288C876.888 131.218 878.912 130.683 881.196 130.683C881.832 130.683 882.511 130.741 883.234 130.857C883.986 130.943 884.578 131.073 885.012 131.247ZM902.706 141.178V178.474H891.257V131.55H902.055L902.706 141.178ZM901.014 153.321H897.502C897.502 150.054 897.892 147.047 898.673 144.3C899.482 141.554 900.667 139.169 902.229 137.145C903.79 135.092 905.713 133.502 907.997 132.374C910.309 131.247 912.984 130.683 916.019 130.683C918.13 130.683 920.067 131.001 921.831 131.637C923.594 132.244 925.112 133.213 926.384 134.543C927.685 135.844 928.683 137.55 929.377 139.66C930.07 141.742 930.417 144.243 930.417 147.163V178.474H918.968V148.334C918.968 146.136 918.65 144.416 918.014 143.173C917.407 141.93 916.525 141.062 915.369 140.571C914.212 140.05 912.825 139.79 911.206 139.79C909.413 139.79 907.866 140.152 906.565 140.874C905.293 141.568 904.238 142.537 903.4 143.78C902.59 145.023 901.983 146.454 901.578 148.073C901.202 149.692 901.014 151.441 901.014 153.321ZM929.55 151.196L924.823 152.063C924.852 149.114 925.257 146.353 926.037 143.78C926.818 141.178 927.96 138.908 929.463 136.971C930.996 135.005 932.889 133.473 935.144 132.374C937.428 131.247 940.059 130.683 943.037 130.683C945.35 130.683 947.432 131.016 949.282 131.681C951.161 132.317 952.766 133.343 954.096 134.76C955.426 136.147 956.438 137.954 957.131 140.18C957.854 142.407 958.216 145.124 958.216 148.334V178.474H946.68V148.29C946.68 146.006 946.362 144.257 945.726 143.043C945.119 141.828 944.237 140.99 943.081 140.527C941.924 140.036 940.565 139.79 939.004 139.79C937.414 139.79 936.026 140.094 934.841 140.701C933.684 141.279 932.701 142.089 931.892 143.129C931.111 144.17 930.519 145.385 930.114 146.772C929.738 148.131 929.55 149.606 929.55 151.196ZM998.851 115.331L1012.73 144.777L1026.69 115.331H1039.79L1018.8 155.359V178.474H1006.7V155.359L985.667 115.331H998.851ZM1040.35 155.489V154.578C1040.35 151.138 1040.84 147.972 1041.83 145.081C1042.81 142.161 1044.24 139.631 1046.12 137.492C1048 135.352 1050.3 133.69 1053.02 132.505C1055.73 131.29 1058.83 130.683 1062.3 130.683C1065.82 130.683 1068.95 131.29 1071.66 132.505C1074.41 133.69 1076.72 135.352 1078.6 137.492C1080.48 139.631 1081.91 142.161 1082.9 145.081C1083.88 147.972 1084.37 151.138 1084.37 154.578V155.489C1084.37 158.901 1083.88 162.066 1082.9 164.986C1081.91 167.878 1080.48 170.407 1078.6 172.576C1076.72 174.715 1074.42 176.378 1071.71 177.563C1068.99 178.748 1065.88 179.341 1062.38 179.341C1058.91 179.341 1055.81 178.748 1053.06 177.563C1050.31 176.378 1048 174.715 1046.12 172.576C1044.24 170.407 1042.81 167.878 1041.83 164.986C1040.84 162.066 1040.35 158.901 1040.35 155.489ZM1051.8 154.578V155.489C1051.8 157.542 1052 159.464 1052.41 161.257C1052.81 163.049 1053.44 164.625 1054.27 165.984C1055.11 167.343 1056.2 168.412 1057.53 169.193C1058.89 169.945 1060.5 170.321 1062.38 170.321C1064.23 170.321 1065.82 169.945 1067.15 169.193C1068.48 168.412 1069.57 167.343 1070.41 165.984C1071.27 164.625 1071.91 163.049 1072.31 161.257C1072.72 159.464 1072.92 157.542 1072.92 155.489V154.578C1072.92 152.555 1072.72 150.661 1072.31 148.897C1071.91 147.105 1071.27 145.529 1070.41 144.17C1069.57 142.783 1068.47 141.698 1067.11 140.918C1065.78 140.108 1064.18 139.703 1062.3 139.703C1060.45 139.703 1058.86 140.108 1057.53 140.918C1056.2 141.698 1055.11 142.783 1054.27 144.17C1053.44 145.529 1052.81 147.105 1052.41 148.897C1052 150.661 1051.8 152.555 1051.8 154.578ZM1120.63 167.328V131.55H1132.16V178.474H1121.32L1120.63 167.328ZM1122.1 157.614L1125.66 157.527C1125.66 160.679 1125.31 163.584 1124.62 166.244C1123.92 168.904 1122.84 171.217 1121.36 173.183C1119.92 175.12 1118.08 176.638 1115.86 177.736C1113.63 178.806 1111 179.341 1107.96 179.341C1105.65 179.341 1103.54 179.023 1101.63 178.387C1099.72 177.722 1098.07 176.696 1096.69 175.308C1095.33 173.891 1094.27 172.084 1093.52 169.887C1092.77 167.661 1092.39 164.986 1092.39 161.864V131.55H1103.84V161.951C1103.84 163.512 1104.02 164.813 1104.36 165.854C1104.74 166.895 1105.24 167.748 1105.88 168.412C1106.55 169.049 1107.31 169.511 1108.18 169.8C1109.08 170.06 1110.03 170.191 1111.04 170.191C1113.82 170.191 1116 169.641 1117.59 168.543C1119.21 167.415 1120.37 165.912 1121.06 164.032C1121.75 162.124 1122.1 159.985 1122.1 157.614ZM1153.76 141.135V178.474H1142.31V131.55H1153.15L1153.76 141.135ZM1168.03 131.247L1167.85 141.915C1167.22 141.8 1166.49 141.713 1165.68 141.655C1164.9 141.597 1164.17 141.568 1163.47 141.568C1161.71 141.568 1160.16 141.814 1158.83 142.305C1157.5 142.768 1156.39 143.447 1155.49 144.344C1154.63 145.24 1153.96 146.339 1153.5 147.64C1153.04 148.912 1152.77 150.357 1152.72 151.976L1150.25 151.673C1150.25 148.695 1150.55 145.934 1151.16 143.39C1151.76 140.845 1152.64 138.619 1153.8 136.711C1154.96 134.803 1156.4 133.328 1158.14 132.288C1159.9 131.218 1161.93 130.683 1164.21 130.683C1164.85 130.683 1165.52 130.741 1166.25 130.857C1167 130.943 1167.59 131.073 1168.03 131.247ZM1219.5 166.114L1235.24 115.331H1248.47L1226.18 178.474H1217.38L1219.5 166.114ZM1204.97 115.331L1220.63 166.114L1222.88 178.474H1213.99L1191.79 115.331H1204.97ZM1266.25 131.55V178.474H1254.76V131.55H1266.25ZM1253.98 119.278C1253.98 117.572 1254.56 116.155 1255.71 115.028C1256.9 113.9 1258.49 113.336 1260.48 113.336C1262.48 113.336 1264.05 113.9 1265.21 115.028C1266.4 116.155 1266.99 117.572 1266.99 119.278C1266.99 120.954 1266.4 122.357 1265.21 123.484C1264.05 124.612 1262.48 125.175 1260.48 125.175C1258.49 125.175 1256.9 124.612 1255.71 123.484C1254.56 122.357 1253.98 120.954 1253.98 119.278ZM1302.98 165.637C1302.98 164.654 1302.72 163.772 1302.2 162.992C1301.68 162.211 1300.7 161.503 1299.25 160.867C1297.84 160.202 1295.76 159.58 1293.01 159.002C1290.58 158.481 1288.34 157.831 1286.29 157.05C1284.23 156.27 1282.47 155.33 1281 154.231C1279.52 153.104 1278.37 151.788 1277.53 150.285C1276.72 148.753 1276.31 146.989 1276.31 144.994C1276.31 143.057 1276.73 141.236 1277.57 139.53C1278.41 137.795 1279.62 136.277 1281.21 134.976C1282.8 133.647 1284.74 132.606 1287.02 131.854C1289.31 131.073 1291.88 130.683 1294.74 130.683C1298.73 130.683 1302.16 131.334 1305.02 132.635C1307.91 133.936 1310.12 135.728 1311.66 138.012C1313.19 140.267 1313.96 142.811 1313.96 145.645H1302.51C1302.51 144.402 1302.22 143.274 1301.64 142.262C1301.09 141.25 1300.24 140.441 1299.08 139.834C1297.92 139.198 1296.46 138.879 1294.7 138.879C1293.11 138.879 1291.77 139.14 1290.67 139.66C1289.6 140.18 1288.79 140.86 1288.24 141.698C1287.69 142.537 1287.42 143.462 1287.42 144.474C1287.42 145.226 1287.56 145.905 1287.85 146.512C1288.17 147.09 1288.67 147.625 1289.37 148.117C1290.06 148.608 1291 149.056 1292.19 149.461C1293.4 149.866 1294.89 150.256 1296.65 150.632C1300.15 151.326 1303.2 152.251 1305.8 153.407C1308.43 154.535 1310.49 156.038 1311.96 157.918C1313.44 159.797 1314.17 162.197 1314.17 165.117C1314.17 167.198 1313.72 169.106 1312.83 170.841C1311.93 172.547 1310.63 174.036 1308.93 175.308C1307.22 176.58 1305.18 177.577 1302.81 178.3C1300.44 178.994 1297.77 179.341 1294.79 179.341C1290.48 179.341 1286.84 178.575 1283.86 177.043C1280.88 175.481 1278.63 173.515 1277.09 171.145C1275.56 168.745 1274.8 166.259 1274.8 163.685H1285.77C1285.85 165.507 1286.35 166.967 1287.24 168.066C1288.14 169.164 1289.27 169.959 1290.62 170.451C1292.01 170.913 1293.47 171.145 1295 171.145C1296.74 171.145 1298.2 170.913 1299.38 170.451C1300.57 169.959 1301.47 169.309 1302.07 168.499C1302.68 167.661 1302.98 166.707 1302.98 165.637ZM1335.03 131.55V178.474H1323.54V131.55H1335.03ZM1322.76 119.278C1322.76 117.572 1323.34 116.155 1324.49 115.028C1325.68 113.9 1327.27 113.336 1329.26 113.336C1331.26 113.336 1332.83 113.9 1333.99 115.028C1335.18 116.155 1335.77 117.572 1335.77 119.278C1335.77 120.954 1335.18 122.357 1333.99 123.484C1332.83 124.612 1331.26 125.175 1329.26 125.175C1327.27 125.175 1325.68 124.612 1324.49 123.484C1323.34 122.357 1322.76 120.954 1322.76 119.278ZM1343.92 155.489V154.578C1343.92 151.138 1344.41 147.972 1345.4 145.081C1346.38 142.161 1347.81 139.631 1349.69 137.492C1351.57 135.352 1353.87 133.69 1356.59 132.505C1359.3 131.29 1362.4 130.683 1365.87 130.683C1369.39 130.683 1372.52 131.29 1375.23 132.505C1377.98 133.69 1380.29 135.352 1382.17 137.492C1384.05 139.631 1385.48 142.161 1386.47 145.081C1387.45 147.972 1387.94 151.138 1387.94 154.578V155.489C1387.94 158.901 1387.45 162.066 1386.47 164.986C1385.48 167.878 1384.05 170.407 1382.17 172.576C1380.29 174.715 1377.99 176.378 1375.28 177.563C1372.56 178.748 1369.45 179.341 1365.95 179.341C1362.48 179.341 1359.38 178.748 1356.63 177.563C1353.88 176.378 1351.57 174.715 1349.69 172.576C1347.81 170.407 1346.38 167.878 1345.4 164.986C1344.41 162.066 1343.92 158.901 1343.92 155.489ZM1355.37 154.578V155.489C1355.37 157.542 1355.57 159.464 1355.98 161.257C1356.38 163.049 1357 164.625 1357.84 165.984C1358.68 167.343 1359.77 168.412 1361.1 169.193C1362.45 169.945 1364.07 170.321 1365.95 170.321C1367.8 170.321 1369.39 169.945 1370.72 169.193C1372.05 168.412 1373.14 167.343 1373.98 165.984C1374.84 164.625 1375.48 163.049 1375.88 161.257C1376.29 159.464 1376.49 157.542 1376.49 155.489V154.578C1376.49 152.555 1376.29 150.661 1375.88 148.897C1375.48 147.105 1374.84 145.529 1373.98 144.17C1373.14 142.783 1372.04 141.698 1370.68 140.918C1369.35 140.108 1367.75 139.703 1365.87 139.703C1364.02 139.703 1362.43 140.108 1361.1 140.918C1359.77 141.698 1358.68 142.783 1357.84 144.17C1357 145.529 1356.38 147.105 1355.98 148.897C1355.57 150.661 1355.37 152.555 1355.37 154.578ZM1407.5 141.568V178.474H1396.05V131.55H1406.8L1407.5 141.568ZM1405.68 153.321H1402.29C1402.32 149.909 1402.79 146.816 1403.68 144.04C1404.58 141.265 1405.84 138.879 1407.46 136.885C1409.1 134.89 1411.05 133.357 1413.31 132.288C1415.56 131.218 1418.08 130.683 1420.86 130.683C1423.11 130.683 1425.15 131.001 1426.97 131.637C1428.79 132.273 1430.35 133.285 1431.65 134.673C1432.98 136.061 1434 137.882 1434.69 140.137C1435.41 142.363 1435.77 145.11 1435.77 148.377V178.474H1424.24V148.29C1424.24 146.151 1423.92 144.459 1423.28 143.216C1422.68 141.973 1421.78 141.091 1420.6 140.571C1419.44 140.05 1418.01 139.79 1416.3 139.79C1414.54 139.79 1412.99 140.152 1411.66 140.874C1410.36 141.568 1409.26 142.537 1408.37 143.78C1407.5 145.023 1406.83 146.454 1406.37 148.073C1405.91 149.692 1405.68 151.441 1405.68 153.321ZM1480.14 131.55V178.474H1468.65V131.55H1480.14ZM1467.87 119.278C1467.87 117.572 1468.44 116.155 1469.6 115.028C1470.79 113.9 1472.38 113.336 1474.37 113.336C1476.37 113.336 1477.94 113.9 1479.1 115.028C1480.28 116.155 1480.88 117.572 1480.88 119.278C1480.88 120.954 1480.28 122.357 1479.1 123.484C1477.94 124.612 1476.37 125.175 1474.37 125.175C1472.38 125.175 1470.79 124.612 1469.6 123.484C1468.44 122.357 1467.87 120.954 1467.87 119.278ZM1502.3 141.568V178.474H1490.85V131.55H1501.61L1502.3 141.568ZM1500.48 153.321H1497.09C1497.12 149.909 1497.59 146.816 1498.48 144.04C1499.38 141.265 1500.64 138.879 1502.26 136.885C1503.9 134.89 1505.86 133.357 1508.11 132.288C1510.37 131.218 1512.88 130.683 1515.66 130.683C1517.91 130.683 1519.95 131.001 1521.77 131.637C1523.59 132.273 1525.15 133.285 1526.45 134.673C1527.78 136.061 1528.8 137.882 1529.49 140.137C1530.21 142.363 1530.57 145.11 1530.57 148.377V178.474H1519.04V148.29C1519.04 146.151 1518.72 144.459 1518.08 143.216C1517.48 141.973 1516.58 141.091 1515.4 140.571C1514.24 140.05 1512.81 139.79 1511.1 139.79C1509.34 139.79 1507.79 140.152 1506.46 140.874C1505.16 141.568 1504.06 142.537 1503.17 143.78C1502.3 145.023 1501.63 146.454 1501.17 148.073C1500.71 149.692 1500.48 151.441 1500.48 153.321ZM1562.88 131.55V139.79H1536V131.55H1562.88ZM1543.19 120.015H1554.69V164.943C1554.69 166.331 1554.87 167.401 1555.25 168.152C1555.63 168.904 1556.19 169.41 1556.94 169.67C1557.69 169.93 1558.59 170.06 1559.63 170.06C1560.38 170.06 1561.08 170.017 1561.71 169.93C1562.35 169.844 1562.88 169.757 1563.32 169.67L1563.36 178.257C1562.41 178.575 1561.32 178.835 1560.11 179.037C1558.92 179.24 1557.58 179.341 1556.07 179.341C1553.5 179.341 1551.25 178.907 1549.31 178.04C1547.37 177.144 1545.87 175.713 1544.8 173.747C1543.73 171.752 1543.19 169.121 1543.19 165.854V120.015ZM1567.35 155.489V154.578C1567.35 151.138 1567.84 147.972 1568.82 145.081C1569.81 142.161 1571.24 139.631 1573.12 137.492C1575 135.352 1577.3 133.69 1580.01 132.505C1582.73 131.29 1585.82 130.683 1589.29 130.683C1592.82 130.683 1595.94 131.29 1598.66 132.505C1601.41 133.69 1603.72 135.352 1605.6 137.492C1607.48 139.631 1608.91 142.161 1609.89 145.081C1610.88 147.972 1611.37 151.138 1611.37 154.578V155.489C1611.37 158.901 1610.88 162.066 1609.89 164.986C1608.91 167.878 1607.48 170.407 1605.6 172.576C1603.72 174.715 1601.42 176.378 1598.7 177.563C1595.99 178.748 1592.88 179.341 1589.38 179.341C1585.91 179.341 1582.8 178.748 1580.06 177.563C1577.31 176.378 1575 174.715 1573.12 172.576C1571.24 170.407 1569.81 167.878 1568.82 164.986C1567.84 162.066 1567.35 158.901 1567.35 155.489ZM1578.8 154.578V155.489C1578.8 157.542 1579 159.464 1579.41 161.257C1579.81 163.049 1580.43 164.625 1581.27 165.984C1582.11 167.343 1583.19 168.412 1584.52 169.193C1585.88 169.945 1587.5 170.321 1589.38 170.321C1591.23 170.321 1592.82 169.945 1594.15 169.193C1595.48 168.412 1596.56 167.343 1597.4 165.984C1598.27 164.625 1598.91 163.049 1599.31 161.257C1599.72 159.464 1599.92 157.542 1599.92 155.489V154.578C1599.92 152.555 1599.72 150.661 1599.31 148.897C1598.91 147.105 1598.27 145.529 1597.4 144.17C1596.56 142.783 1595.47 141.698 1594.11 140.918C1592.78 140.108 1591.17 139.703 1589.29 139.703C1587.44 139.703 1585.85 140.108 1584.52 140.918C1583.19 141.698 1582.11 142.783 1581.27 144.17C1580.43 145.529 1579.81 147.105 1579.41 148.897C1579 150.661 1578.8 152.555 1578.8 154.578ZM393.273 241.331H416.214C421.013 241.331 425.133 242.054 428.573 243.5C432.014 244.945 434.659 247.085 436.51 249.918C438.36 252.751 439.285 256.235 439.285 260.369C439.285 263.636 438.707 266.47 437.55 268.869C436.394 271.269 434.76 273.278 432.65 274.897C430.568 276.516 428.111 277.788 425.278 278.714L421.548 280.622H401.296L401.209 271.211H416.344C418.801 271.211 420.84 270.777 422.459 269.91C424.078 269.043 425.292 267.843 426.102 266.311C426.94 264.778 427.359 263.029 427.359 261.063C427.359 258.953 426.954 257.131 426.145 255.599C425.335 254.038 424.107 252.838 422.459 251.999C420.811 251.161 418.729 250.742 416.214 250.742H405.199V304.474H393.273V241.331ZM428.92 304.474L414.306 276.198L426.926 276.155L441.714 303.866V304.474H428.92ZM469.946 305.341C466.39 305.341 463.195 304.763 460.362 303.606C457.528 302.45 455.114 300.845 453.119 298.793C451.153 296.711 449.635 294.297 448.566 291.55C447.525 288.775 447.004 285.797 447.004 282.617V280.882C447.004 277.268 447.525 273.987 448.566 271.038C449.606 268.06 451.081 265.501 452.989 263.362C454.897 261.222 457.181 259.574 459.841 258.418C462.501 257.261 465.435 256.683 468.645 256.683C471.969 256.683 474.904 257.247 477.448 258.374C479.992 259.473 482.117 261.034 483.823 263.058C485.529 265.082 486.815 267.51 487.683 270.344C488.55 273.148 488.984 276.256 488.984 279.668V284.481H452.209V276.589H477.708V275.721C477.651 273.9 477.304 272.237 476.668 270.734C476.031 269.202 475.049 267.987 473.719 267.091C472.389 266.166 470.668 265.703 468.558 265.703C466.852 265.703 465.363 266.079 464.091 266.831C462.848 267.554 461.807 268.595 460.969 269.953C460.159 271.283 459.552 272.873 459.147 274.724C458.742 276.574 458.54 278.627 458.54 280.882V282.617C458.54 284.583 458.8 286.404 459.321 288.081C459.87 289.758 460.665 291.218 461.706 292.461C462.776 293.675 464.048 294.629 465.522 295.323C467.026 295.988 468.731 296.321 470.64 296.321C473.039 296.321 475.208 295.858 477.145 294.933C479.111 293.979 480.816 292.577 482.262 290.726L488.03 296.711C487.047 298.156 485.717 299.544 484.04 300.874C482.392 302.204 480.397 303.288 478.055 304.127C475.713 304.936 473.01 305.341 469.946 305.341ZM522.507 294.499V272.859C522.507 271.269 522.232 269.896 521.683 268.739C521.133 267.583 520.295 266.686 519.167 266.05C518.04 265.414 516.609 265.096 514.874 265.096C513.342 265.096 511.997 265.357 510.841 265.877C509.713 266.397 508.846 267.135 508.239 268.089C507.632 269.014 507.328 270.084 507.328 271.298H495.836C495.836 269.361 496.298 267.525 497.224 265.79C498.149 264.027 499.464 262.465 501.17 261.107C502.905 259.719 504.972 258.635 507.371 257.854C509.8 257.073 512.518 256.683 515.524 256.683C519.081 256.683 522.246 257.29 525.022 258.505C527.826 259.69 530.024 261.482 531.614 263.882C533.233 266.282 534.042 269.303 534.042 272.946V293.415C534.042 295.757 534.187 297.766 534.476 299.443C534.794 301.091 535.256 302.522 535.864 303.736V304.474H524.198C523.649 303.288 523.229 301.785 522.94 299.963C522.651 298.113 522.507 296.292 522.507 294.499ZM524.111 275.895L524.198 282.703H516.956C515.163 282.703 513.587 282.891 512.229 283.267C510.87 283.614 509.757 284.134 508.889 284.828C508.022 285.493 507.371 286.303 506.938 287.257C506.504 288.182 506.287 289.237 506.287 290.423C506.287 291.579 506.547 292.62 507.068 293.545C507.617 294.47 508.398 295.208 509.41 295.757C510.451 296.277 511.665 296.537 513.053 296.537C515.076 296.537 516.84 296.133 518.343 295.323C519.847 294.485 521.018 293.473 521.856 292.287C522.694 291.102 523.143 289.975 523.2 288.905L526.496 293.849C526.092 295.034 525.484 296.292 524.675 297.622C523.865 298.952 522.825 300.195 521.552 301.351C520.28 302.508 518.748 303.462 516.956 304.213C515.163 304.965 513.081 305.341 510.711 305.341C507.675 305.341 504.957 304.734 502.558 303.52C500.158 302.305 498.264 300.643 496.877 298.532C495.489 296.422 494.795 294.022 494.795 291.333C494.795 288.847 495.258 286.65 496.183 284.742C497.108 282.833 498.481 281.229 500.303 279.928C502.124 278.598 504.379 277.6 507.068 276.936C509.786 276.242 512.894 275.895 516.392 275.895H524.111ZM556.506 237.862V304.474H545.014V237.862H556.506ZM579.578 257.55V304.474H568.085V257.55H579.578ZM567.305 245.278C567.305 243.572 567.883 242.155 569.039 241.028C570.225 239.9 571.815 239.336 573.81 239.336C575.805 239.336 577.38 239.9 578.537 241.028C579.722 242.155 580.315 243.572 580.315 245.278C580.315 246.954 579.722 248.357 578.537 249.484C577.38 250.612 575.805 251.175 573.81 251.175C571.815 251.175 570.225 250.612 569.039 249.484C567.883 248.357 567.305 246.954 567.305 245.278ZM612.71 257.55V265.79H585.822V257.55H612.71ZM593.021 246.015H604.514V290.943C604.514 292.331 604.702 293.401 605.077 294.152C605.453 294.904 606.017 295.41 606.769 295.67C607.52 295.93 608.417 296.06 609.458 296.06C610.209 296.06 610.903 296.017 611.539 295.93C612.175 295.844 612.71 295.757 613.144 295.67L613.187 304.257C612.233 304.575 611.149 304.835 609.935 305.037C608.749 305.24 607.405 305.341 605.901 305.341C603.328 305.341 601.073 304.907 599.136 304.04C597.199 303.144 595.696 301.713 594.626 299.747C593.556 297.752 593.021 295.121 593.021 291.854V246.015ZM634.09 299.27L646.667 257.55H658.939L640.118 311.586C639.684 312.742 639.121 314 638.427 315.359C637.762 316.718 636.866 318.004 635.738 319.218C634.61 320.462 633.194 321.474 631.488 322.254C629.811 323.035 627.773 323.425 625.373 323.425C624.332 323.425 623.407 323.353 622.598 323.208C621.788 323.064 620.935 322.876 620.039 322.644V314.058C620.328 314.087 620.661 314.101 621.037 314.101C621.441 314.13 621.788 314.144 622.077 314.144C623.754 314.144 625.142 313.942 626.241 313.537C627.339 313.162 628.221 312.54 628.886 311.673C629.58 310.834 630.158 309.736 630.621 308.377L634.09 299.27ZM627.889 257.55L638.513 292.114L640.378 304.213L632.485 305.645L615.529 257.55H627.889ZM684.873 285.522H674.508C674.537 282.891 674.754 280.636 675.159 278.757C675.592 276.878 676.301 275.186 677.284 273.683C678.267 272.151 679.597 270.589 681.273 268.999C682.603 267.756 683.789 266.585 684.83 265.487C685.899 264.359 686.738 263.188 687.345 261.974C687.952 260.731 688.256 259.328 688.256 257.767C688.256 256.004 687.966 254.529 687.388 253.344C686.839 252.158 686.015 251.262 684.916 250.655C683.847 250.019 682.502 249.701 680.883 249.701C679.553 249.701 678.296 249.976 677.11 250.525C675.925 251.074 674.971 251.927 674.248 253.084C673.525 254.211 673.135 255.686 673.077 257.507H661.585C661.672 253.72 662.568 250.568 664.274 248.053C665.979 245.509 668.278 243.615 671.169 242.372C674.06 241.1 677.298 240.464 680.883 240.464C684.844 240.464 688.227 241.129 691.031 242.459C693.864 243.76 696.018 245.668 697.493 248.183C698.996 250.698 699.748 253.734 699.748 257.29C699.748 259.834 699.256 262.118 698.273 264.142C697.29 266.137 695.989 268.002 694.37 269.737C692.751 271.471 691.002 273.22 689.123 274.984C687.475 276.458 686.362 278.034 685.784 279.711C685.205 281.388 684.902 283.325 684.873 285.522ZM673.424 299.009C673.424 297.275 674.002 295.829 675.159 294.673C676.344 293.516 677.934 292.938 679.929 292.938C681.924 292.938 683.5 293.516 684.656 294.673C685.841 295.829 686.434 297.275 686.434 299.009C686.434 300.686 685.841 302.103 684.656 303.259C683.5 304.416 681.924 304.994 679.929 304.994C677.934 304.994 676.344 304.416 675.159 303.259C674.002 302.103 673.424 300.686 673.424 299.009ZM771.26 295.106V304.474H739.515V295.106H771.26ZM743.115 241.331V304.474H731.189V241.331H743.115ZM799.449 305.341C795.893 305.341 792.698 304.763 789.865 303.606C787.031 302.45 784.617 300.845 782.622 298.793C780.656 296.711 779.139 294.297 778.069 291.55C777.028 288.775 776.508 285.797 776.508 282.617V280.882C776.508 277.268 777.028 273.987 778.069 271.038C779.11 268.06 780.584 265.501 782.492 263.362C784.4 261.222 786.684 259.574 789.344 258.418C792.004 257.261 794.939 256.683 798.148 256.683C801.473 256.683 804.407 257.247 806.951 258.374C809.495 259.473 811.62 261.034 813.326 263.058C815.032 265.082 816.319 267.51 817.186 270.344C818.053 273.148 818.487 276.256 818.487 279.668V284.481H781.712V276.589H807.211V275.721C807.154 273.9 806.807 272.237 806.171 270.734C805.535 269.202 804.552 267.987 803.222 267.091C801.892 266.166 800.172 265.703 798.061 265.703C796.355 265.703 794.866 266.079 793.594 266.831C792.351 267.554 791.31 268.595 790.472 269.953C789.662 271.283 789.055 272.873 788.65 274.724C788.246 276.574 788.043 278.627 788.043 280.882V282.617C788.043 284.583 788.303 286.404 788.824 288.081C789.373 289.758 790.168 291.218 791.209 292.461C792.279 293.675 793.551 294.629 795.025 295.323C796.529 295.988 798.234 296.321 800.143 296.321C802.542 296.321 804.711 295.858 806.648 294.933C808.614 293.979 810.319 292.577 811.765 290.726L817.533 296.711C816.55 298.156 815.22 299.544 813.543 300.874C811.895 302.204 809.9 303.288 807.558 304.127C805.217 304.936 802.513 305.341 799.449 305.341ZM848.367 257.55V265.79H821.479V257.55H848.367ZM828.678 246.015H840.17V290.943C840.17 292.331 840.358 293.401 840.734 294.152C841.11 294.904 841.674 295.41 842.426 295.67C843.177 295.93 844.073 296.06 845.114 296.06C845.866 296.06 846.56 296.017 847.196 295.93C847.832 295.844 848.367 295.757 848.8 295.67L848.844 304.257C847.89 304.575 846.806 304.835 845.591 305.037C844.406 305.24 843.062 305.341 841.558 305.341C838.985 305.341 836.73 304.907 834.793 304.04C832.856 303.144 831.352 301.713 830.283 299.747C829.213 297.752 828.678 295.121 828.678 291.854V246.015ZM862.548 237.862V243.803L861.334 260.803H854.005V244.454V237.862H862.548ZM892.645 291.637C892.645 290.654 892.384 289.772 891.864 288.992C891.344 288.211 890.361 287.503 888.915 286.867C887.498 286.202 885.417 285.58 882.67 285.002C880.242 284.481 878.001 283.831 875.948 283.05C873.896 282.27 872.132 281.33 870.658 280.231C869.183 279.104 868.027 277.788 867.188 276.285C866.379 274.753 865.974 272.989 865.974 270.994C865.974 269.057 866.393 267.236 867.232 265.53C868.07 263.795 869.284 262.277 870.874 260.976C872.464 259.647 874.402 258.606 876.686 257.854C878.97 257.073 881.543 256.683 884.405 256.683C888.395 256.683 891.821 257.334 894.683 258.635C897.574 259.936 899.786 261.728 901.318 264.012C902.85 266.267 903.617 268.811 903.617 271.645H892.168C892.168 270.402 891.878 269.274 891.3 268.262C890.751 267.25 889.898 266.441 888.742 265.834C887.585 265.198 886.125 264.879 884.362 264.879C882.771 264.879 881.427 265.14 880.328 265.66C879.259 266.18 878.449 266.86 877.9 267.698C877.351 268.537 877.076 269.462 877.076 270.474C877.076 271.226 877.22 271.905 877.51 272.512C877.828 273.09 878.334 273.625 879.027 274.117C879.721 274.608 880.661 275.056 881.846 275.461C883.061 275.866 884.549 276.256 886.313 276.632C889.811 277.326 892.861 278.251 895.464 279.407C898.094 280.535 900.147 282.038 901.622 283.918C903.096 285.797 903.833 288.197 903.833 291.117C903.833 293.198 903.385 295.106 902.489 296.841C901.593 298.547 900.292 300.036 898.586 301.308C896.88 302.58 894.842 303.577 892.471 304.3C890.1 304.994 887.426 305.341 884.448 305.341C880.14 305.341 876.498 304.575 873.52 303.043C870.542 301.481 868.287 299.515 866.754 297.145C865.222 294.745 864.456 292.259 864.456 289.685H875.428C875.515 291.507 876.006 292.967 876.902 294.066C877.799 295.164 878.926 295.959 880.285 296.451C881.673 296.913 883.133 297.145 884.665 297.145C886.4 297.145 887.86 296.913 889.045 296.451C890.231 295.959 891.127 295.309 891.734 294.499C892.341 293.661 892.645 292.707 892.645 291.637ZM984.8 271.818V296.407C983.875 297.593 982.414 298.879 980.42 300.267C978.454 301.655 975.881 302.855 972.7 303.866C969.52 304.849 965.617 305.341 960.991 305.341C956.972 305.341 953.301 304.676 949.976 303.346C946.651 301.987 943.789 300.007 941.389 297.405C938.99 294.803 937.139 291.623 935.838 287.864C934.537 284.106 933.887 279.812 933.887 274.984V270.821C933.887 265.993 934.494 261.699 935.708 257.941C936.951 254.182 938.715 251.002 940.999 248.4C943.312 245.798 946.073 243.818 949.282 242.459C952.52 241.1 956.134 240.42 960.124 240.42C965.472 240.42 969.867 241.302 973.307 243.066C976.777 244.829 979.437 247.258 981.287 250.352C983.137 253.416 984.294 256.943 984.756 260.933H973.134C972.816 258.736 972.18 256.813 971.226 255.165C970.272 253.488 968.913 252.187 967.149 251.262C965.415 250.308 963.16 249.831 960.384 249.831C958.042 249.831 955.975 250.294 954.183 251.219C952.39 252.144 950.887 253.488 949.672 255.252C948.458 257.016 947.533 259.198 946.897 261.8C946.29 264.402 945.986 267.38 945.986 270.734V274.984C945.986 278.367 946.333 281.373 947.027 284.004C947.721 286.606 948.718 288.804 950.019 290.596C951.349 292.36 952.983 293.704 954.92 294.629C956.886 295.526 959.112 295.974 961.598 295.974C963.853 295.974 965.718 295.786 967.193 295.41C968.696 295.005 969.896 294.528 970.792 293.979C971.688 293.429 972.382 292.895 972.874 292.374V280.535H960.341V271.818H984.8ZM1016.28 305.341C1012.73 305.341 1009.53 304.763 1006.7 303.606C1003.87 302.45 1001.45 300.845 999.458 298.793C997.492 296.711 995.974 294.297 994.904 291.55C993.863 288.775 993.343 285.797 993.343 282.617V280.882C993.343 277.268 993.863 273.987 994.904 271.038C995.945 268.06 997.42 265.501 999.328 263.362C1001.24 261.222 1003.52 259.574 1006.18 258.418C1008.84 257.261 1011.77 256.683 1014.98 256.683C1018.31 256.683 1021.24 257.247 1023.79 258.374C1026.33 259.473 1028.46 261.034 1030.16 263.058C1031.87 265.082 1033.15 267.51 1034.02 270.344C1034.89 273.148 1035.32 276.256 1035.32 279.668V284.481H998.547V276.589H1024.05V275.721C1023.99 273.9 1023.64 272.237 1023.01 270.734C1022.37 269.202 1021.39 267.987 1020.06 267.091C1018.73 266.166 1017.01 265.703 1014.9 265.703C1013.19 265.703 1011.7 266.079 1010.43 266.831C1009.19 267.554 1008.15 268.595 1007.31 269.953C1006.5 271.283 1005.89 272.873 1005.49 274.724C1005.08 276.574 1004.88 278.627 1004.88 280.882V282.617C1004.88 284.583 1005.14 286.404 1005.66 288.081C1006.21 289.758 1007 291.218 1008.04 292.461C1009.11 293.675 1010.39 294.629 1011.86 295.323C1013.36 295.988 1015.07 296.321 1016.98 296.321C1019.38 296.321 1021.55 295.858 1023.48 294.933C1025.45 293.979 1027.15 292.577 1028.6 290.726L1034.37 296.711C1033.39 298.156 1032.06 299.544 1030.38 300.874C1028.73 302.204 1026.74 303.288 1024.39 304.127C1022.05 304.936 1019.35 305.341 1016.28 305.341ZM1065.2 257.55V265.79H1038.31V257.55H1065.2ZM1045.51 246.015H1057.01V290.943C1057.01 292.331 1057.19 293.401 1057.57 294.152C1057.95 294.904 1058.51 295.41 1059.26 295.67C1060.01 295.93 1060.91 296.06 1061.95 296.06C1062.7 296.06 1063.4 296.017 1064.03 295.93C1064.67 295.844 1065.2 295.757 1065.64 295.67L1065.68 304.257C1064.73 304.575 1063.64 304.835 1062.43 305.037C1061.24 305.24 1059.9 305.341 1058.39 305.341C1055.82 305.341 1053.57 304.907 1051.63 304.04C1049.69 303.144 1048.19 301.713 1047.12 299.747C1046.05 297.752 1045.51 295.121 1045.51 291.854V246.015ZM1128.87 288.081C1128.87 286.867 1128.68 285.782 1128.3 284.828C1127.95 283.845 1127.3 282.964 1126.35 282.183C1125.42 281.373 1124.11 280.593 1122.4 279.841C1120.73 279.061 1118.56 278.251 1115.9 277.413C1112.95 276.487 1110.2 275.447 1107.66 274.29C1105.11 273.134 1102.87 271.789 1100.94 270.257C1099.03 268.725 1097.54 266.961 1096.47 264.966C1095.4 262.942 1094.87 260.601 1094.87 257.941C1094.87 255.339 1095.41 252.968 1096.51 250.829C1097.64 248.689 1099.23 246.853 1101.28 245.321C1103.34 243.76 1105.75 242.56 1108.53 241.721C1111.33 240.883 1114.42 240.464 1117.81 240.464C1122.49 240.464 1126.54 241.317 1129.95 243.022C1133.39 244.728 1136.05 247.041 1137.93 249.961C1139.81 252.881 1140.75 256.163 1140.75 259.806H1128.87C1128.87 257.84 1128.45 256.105 1127.61 254.601C1126.8 253.098 1125.55 251.913 1123.88 251.045C1122.23 250.178 1120.15 249.744 1117.63 249.744C1115.2 249.744 1113.18 250.106 1111.56 250.829C1109.97 251.551 1108.77 252.534 1107.96 253.778C1107.18 255.021 1106.79 256.408 1106.79 257.941C1106.79 259.097 1107.07 260.138 1107.62 261.063C1108.16 261.959 1108.99 262.812 1110.09 263.622C1111.19 264.402 1112.54 265.14 1114.16 265.834C1115.81 266.499 1117.72 267.163 1119.89 267.828C1123.36 268.869 1126.39 270.026 1129 271.298C1131.63 272.57 1133.81 274.015 1135.54 275.635C1137.31 277.254 1138.62 279.075 1139.49 281.099C1140.39 283.123 1140.83 285.421 1140.83 287.994C1140.83 290.712 1140.3 293.14 1139.23 295.28C1138.16 297.419 1136.63 299.241 1134.63 300.744C1132.64 302.247 1130.24 303.389 1127.43 304.17C1124.66 304.951 1121.55 305.341 1118.11 305.341C1115.05 305.341 1112.01 304.936 1109 304.127C1106.03 303.288 1103.32 302.045 1100.89 300.397C1098.46 298.72 1096.53 296.61 1095.08 294.066C1093.64 291.492 1092.91 288.486 1092.91 285.045H1104.88C1104.88 287.04 1105.2 288.746 1105.84 290.162C1106.5 291.55 1107.43 292.692 1108.61 293.588C1109.83 294.456 1111.24 295.092 1112.86 295.497C1114.48 295.901 1116.23 296.104 1118.11 296.104C1120.54 296.104 1122.53 295.771 1124.09 295.106C1125.68 294.412 1126.87 293.458 1127.65 292.244C1128.46 291.03 1128.87 289.642 1128.87 288.081ZM1171.36 257.55V265.79H1144.48V257.55H1171.36ZM1151.68 246.015H1163.17V290.943C1163.17 292.331 1163.36 293.401 1163.73 294.152C1164.11 294.904 1164.67 295.41 1165.42 295.67C1166.18 295.93 1167.07 296.06 1168.11 296.06C1168.86 296.06 1169.56 296.017 1170.19 295.93C1170.83 295.844 1171.36 295.757 1171.8 295.67L1171.84 304.257C1170.89 304.575 1169.8 304.835 1168.59 305.037C1167.4 305.24 1166.06 305.341 1164.56 305.341C1161.98 305.341 1159.73 304.907 1157.79 304.04C1155.85 303.144 1154.35 301.713 1153.28 299.747C1152.21 297.752 1151.68 295.121 1151.68 291.854V246.015ZM1204.84 294.499V272.859C1204.84 271.269 1204.57 269.896 1204.02 268.739C1203.47 267.583 1202.63 266.686 1201.5 266.05C1200.38 265.414 1198.95 265.096 1197.21 265.096C1195.68 265.096 1194.33 265.357 1193.18 265.877C1192.05 266.397 1191.18 267.135 1190.58 268.089C1189.97 269.014 1189.67 270.084 1189.67 271.298H1178.17C1178.17 269.361 1178.64 267.525 1179.56 265.79C1180.49 264.027 1181.8 262.465 1183.51 261.107C1185.24 259.719 1187.31 258.635 1189.71 257.854C1192.14 257.073 1194.86 256.683 1197.86 256.683C1201.42 256.683 1204.58 257.29 1207.36 258.505C1210.16 259.69 1212.36 261.482 1213.95 263.882C1215.57 266.282 1216.38 269.303 1216.38 272.946V293.415C1216.38 295.757 1216.52 297.766 1216.81 299.443C1217.13 301.091 1217.59 302.522 1218.2 303.736V304.474H1206.54C1205.99 303.288 1205.57 301.785 1205.28 299.963C1204.99 298.113 1204.84 296.292 1204.84 294.499ZM1206.45 275.895L1206.54 282.703H1199.29C1197.5 282.703 1195.93 282.891 1194.57 283.267C1193.21 283.614 1192.09 284.134 1191.23 284.828C1190.36 285.493 1189.71 286.303 1189.28 287.257C1188.84 288.182 1188.62 289.237 1188.62 290.423C1188.62 291.579 1188.89 292.62 1189.41 293.545C1189.95 294.47 1190.74 295.208 1191.75 295.757C1192.79 296.277 1194 296.537 1195.39 296.537C1197.41 296.537 1199.18 296.133 1200.68 295.323C1202.18 294.485 1203.36 293.473 1204.19 292.287C1205.03 291.102 1205.48 289.975 1205.54 288.905L1208.83 293.849C1208.43 295.034 1207.82 296.292 1207.01 297.622C1206.2 298.952 1205.16 300.195 1203.89 301.351C1202.62 302.508 1201.09 303.462 1199.29 304.213C1197.5 304.965 1195.42 305.341 1193.05 305.341C1190.01 305.341 1187.3 304.734 1184.9 303.52C1182.5 302.305 1180.6 300.643 1179.21 298.532C1177.83 296.422 1177.13 294.022 1177.13 291.333C1177.13 288.847 1177.6 286.65 1178.52 284.742C1179.45 282.833 1180.82 281.229 1182.64 279.928C1184.46 278.598 1186.72 277.6 1189.41 276.936C1192.12 276.242 1195.23 275.895 1198.73 275.895H1206.45ZM1238.15 267.135V304.474H1226.7V257.55H1237.54L1238.15 267.135ZM1252.42 257.247L1252.24 267.915C1251.61 267.8 1250.89 267.713 1250.08 267.655C1249.3 267.597 1248.56 267.568 1247.86 267.568C1246.1 267.568 1244.55 267.814 1243.22 268.305C1241.89 268.768 1240.78 269.447 1239.88 270.344C1239.02 271.24 1238.35 272.339 1237.89 273.64C1237.43 274.912 1237.17 276.357 1237.11 277.976L1234.64 277.673C1234.64 274.695 1234.94 271.934 1235.55 269.39C1236.16 266.845 1237.04 264.619 1238.19 262.711C1239.35 260.803 1240.8 259.328 1242.53 258.288C1244.29 257.218 1246.32 256.683 1248.6 256.683C1249.24 256.683 1249.92 256.741 1250.64 256.857C1251.39 256.943 1251.98 257.073 1252.42 257.247ZM1283.08 257.55V265.79H1256.19V257.55H1283.08ZM1263.39 246.015H1274.88V290.943C1274.88 292.331 1275.07 293.401 1275.45 294.152C1275.82 294.904 1276.39 295.41 1277.14 295.67C1277.89 295.93 1278.79 296.06 1279.83 296.06C1280.58 296.06 1281.27 296.017 1281.91 295.93C1282.54 295.844 1283.08 295.757 1283.51 295.67L1283.56 304.257C1282.6 304.575 1281.52 304.835 1280.3 305.037C1279.12 305.24 1277.77 305.341 1276.27 305.341C1273.7 305.341 1271.44 304.907 1269.5 304.04C1267.57 303.144 1266.06 301.713 1264.99 299.747C1263.92 297.752 1263.39 295.121 1263.39 291.854V246.015ZM1311.79 305.341C1308.23 305.341 1305.04 304.763 1302.2 303.606C1299.37 302.45 1296.96 300.845 1294.96 298.793C1293 296.711 1291.48 294.297 1290.41 291.55C1289.37 288.775 1288.85 285.797 1288.85 282.617V280.882C1288.85 277.268 1289.37 273.987 1290.41 271.038C1291.45 268.06 1292.92 265.501 1294.83 263.362C1296.74 261.222 1299.02 259.574 1301.68 258.418C1304.34 257.261 1307.28 256.683 1310.49 256.683C1313.81 256.683 1316.75 257.247 1319.29 258.374C1321.83 259.473 1323.96 261.034 1325.66 263.058C1327.37 265.082 1328.66 267.51 1329.52 270.344C1330.39 273.148 1330.83 276.256 1330.83 279.668V284.481H1294.05V276.589H1319.55V275.721C1319.49 273.9 1319.15 272.237 1318.51 270.734C1317.87 269.202 1316.89 267.987 1315.56 267.091C1314.23 266.166 1312.51 265.703 1310.4 265.703C1308.69 265.703 1307.21 266.079 1305.93 266.831C1304.69 267.554 1303.65 268.595 1302.81 269.953C1302 271.283 1301.39 272.873 1300.99 274.724C1300.58 276.574 1300.38 278.627 1300.38 280.882V282.617C1300.38 284.583 1300.64 286.404 1301.16 288.081C1301.71 289.758 1302.51 291.218 1303.55 292.461C1304.62 293.675 1305.89 294.629 1307.36 295.323C1308.87 295.988 1310.57 296.321 1312.48 296.321C1314.88 296.321 1317.05 295.858 1318.99 294.933C1320.95 293.979 1322.66 292.577 1324.1 290.726L1329.87 296.711C1328.89 298.156 1327.56 299.544 1325.88 300.874C1324.23 302.204 1322.24 303.288 1319.9 304.127C1317.56 304.936 1314.85 305.341 1311.79 305.341ZM1366.65 294.499V237.862H1378.18V304.474H1367.77L1366.65 294.499ZM1336.51 281.576V280.665C1336.51 277.08 1336.91 273.828 1337.72 270.908C1338.56 267.959 1339.77 265.429 1341.36 263.318C1342.95 261.208 1344.88 259.574 1347.13 258.418C1349.42 257.261 1352 256.683 1354.89 256.683C1357.7 256.683 1360.14 257.247 1362.22 258.374C1364.33 259.502 1366.13 261.107 1367.6 263.188C1369.1 265.27 1370.3 267.742 1371.2 270.604C1372.1 273.437 1372.75 276.56 1373.15 279.971V282.443C1372.75 285.768 1372.1 288.818 1371.2 291.594C1370.3 294.369 1369.1 296.798 1367.6 298.879C1366.13 300.932 1364.33 302.522 1362.22 303.65C1360.11 304.777 1357.64 305.341 1354.81 305.341C1351.95 305.341 1349.37 304.748 1347.09 303.563C1344.83 302.378 1342.91 300.715 1341.32 298.576C1339.76 296.436 1338.56 293.921 1337.72 291.03C1336.91 288.139 1336.51 284.987 1336.51 281.576ZM1348 280.665V281.576C1348 283.6 1348.17 285.493 1348.52 287.257C1348.87 289.02 1349.43 290.582 1350.21 291.941C1350.99 293.27 1351.99 294.311 1353.2 295.063C1354.45 295.815 1355.95 296.191 1357.71 296.191C1359.97 296.191 1361.82 295.699 1363.26 294.716C1364.74 293.704 1365.88 292.331 1366.69 290.596C1367.5 288.833 1368.02 286.852 1368.25 284.655V277.846C1368.14 276.112 1367.83 274.507 1367.34 273.032C1366.88 271.558 1366.21 270.286 1365.35 269.216C1364.51 268.146 1363.47 267.308 1362.22 266.701C1360.98 266.094 1359.51 265.79 1357.8 265.79C1356.04 265.79 1354.53 266.18 1353.29 266.961C1352.05 267.713 1351.03 268.768 1350.25 270.127C1349.47 271.486 1348.9 273.061 1348.52 274.854C1348.17 276.646 1348 278.583 1348 280.665ZM1401.6 241.331L1400.34 285.522H1390.67L1389.41 241.331H1401.6ZM1389.07 299.139C1389.07 297.434 1389.65 296.003 1390.8 294.846C1391.99 293.661 1393.58 293.068 1395.57 293.068C1397.57 293.068 1399.14 293.661 1400.3 294.846C1401.49 296.003 1402.08 297.434 1402.08 299.139C1402.08 300.816 1401.49 302.233 1400.3 303.389C1399.14 304.546 1397.57 305.124 1395.57 305.124C1393.58 305.124 1391.99 304.546 1390.8 303.389C1389.65 302.233 1389.07 300.816 1389.07 299.139Z" fill="white"/>
<rect x="744.042" y="381.424" width="306.315" height="90.1693" rx="45.0846" fill="white"/>
<rect x="744.042" y="381.424" width="306.315" height="90.1693" rx="45.0846" stroke="white" stroke-width="2.90365"/>
<path d="M828.849 429.791H833.936C833.834 431.459 833.374 432.939 832.557 434.232C831.752 435.525 830.624 436.534 829.172 437.26C827.731 437.986 825.996 438.349 823.966 438.349C822.378 438.349 820.954 438.077 819.695 437.532C818.436 436.977 817.359 436.183 816.463 435.151C815.578 434.118 814.903 432.871 814.438 431.408C813.973 429.944 813.741 428.305 813.741 426.491V424.772C813.741 422.957 813.979 421.318 814.455 419.855C814.943 418.381 815.635 417.127 816.531 416.095C817.438 415.063 818.521 414.269 819.78 413.713C821.039 413.158 822.446 412.88 824 412.88C826.064 412.88 827.805 413.254 829.223 414.003C830.652 414.751 831.758 415.783 832.54 417.099C833.334 418.415 833.811 419.912 833.97 421.591H828.866C828.809 420.593 828.61 419.748 828.27 419.056C827.93 418.352 827.414 417.825 826.722 417.473C826.041 417.11 825.134 416.929 824 416.929C823.149 416.929 822.406 417.088 821.771 417.405C821.136 417.723 820.603 418.205 820.172 418.852C819.741 419.498 819.417 420.315 819.202 421.301C818.998 422.277 818.896 423.423 818.896 424.738V426.491C818.896 427.772 818.992 428.901 819.185 429.876C819.378 430.84 819.673 431.657 820.07 432.326C820.478 432.984 821 433.483 821.635 433.823C822.281 434.152 823.058 434.317 823.966 434.317C825.032 434.317 825.911 434.147 826.603 433.806C827.295 433.466 827.822 432.961 828.185 432.292C828.559 431.623 828.78 430.789 828.849 429.791ZM836.924 428.992V428.634C836.924 427.285 837.117 426.043 837.503 424.908C837.888 423.763 838.45 422.77 839.187 421.931C839.924 421.092 840.832 420.439 841.909 419.974C842.987 419.498 844.223 419.26 845.618 419.26C847.013 419.26 848.255 419.498 849.344 419.974C850.433 420.439 851.346 421.092 852.083 421.931C852.832 422.77 853.399 423.763 853.785 424.908C854.17 426.043 854.363 427.285 854.363 428.634V428.992C854.363 430.33 854.17 431.572 853.785 432.718C853.399 433.852 852.832 434.844 852.083 435.695C851.346 436.534 850.439 437.186 849.361 437.652C848.284 438.117 847.047 438.349 845.652 438.349C844.257 438.349 843.015 438.117 841.926 437.652C840.849 437.186 839.936 436.534 839.187 435.695C838.45 434.844 837.888 433.852 837.503 432.718C837.117 431.572 836.924 430.33 836.924 428.992ZM841.824 428.634V428.992C841.824 429.763 841.892 430.483 842.028 431.152C842.164 431.822 842.38 432.411 842.675 432.922C842.981 433.421 843.378 433.812 843.866 434.096C844.354 434.379 844.949 434.521 845.652 434.521C846.333 434.521 846.917 434.379 847.405 434.096C847.892 433.812 848.284 433.421 848.579 432.922C848.873 432.411 849.089 431.822 849.225 431.152C849.373 430.483 849.446 429.763 849.446 428.992V428.634C849.446 427.886 849.373 427.183 849.225 426.525C849.089 425.855 848.868 425.266 848.562 424.755C848.267 424.233 847.875 423.825 847.388 423.53C846.9 423.235 846.31 423.088 845.618 423.088C844.926 423.088 844.337 423.235 843.849 423.53C843.372 423.825 842.981 424.233 842.675 424.755C842.38 425.266 842.164 425.855 842.028 426.525C841.892 427.183 841.824 427.886 841.824 428.634ZM862.898 423.53V438.009H857.998V419.6H862.592L862.898 423.53ZM862.184 428.158H860.857C860.857 426.797 861.033 425.572 861.384 424.483C861.736 423.383 862.229 422.447 862.864 421.676C863.499 420.893 864.254 420.298 865.127 419.889C866.012 419.47 866.999 419.26 868.087 419.26C868.949 419.26 869.738 419.385 870.452 419.634C871.167 419.884 871.779 420.281 872.29 420.825C872.812 421.37 873.209 422.09 873.481 422.986C873.764 423.882 873.906 424.976 873.906 426.269V438.009H868.972V426.252C868.972 425.436 868.859 424.801 868.632 424.347C868.405 423.893 868.07 423.576 867.628 423.394C867.197 423.201 866.664 423.105 866.029 423.105C865.371 423.105 864.798 423.235 864.31 423.496C863.834 423.757 863.437 424.12 863.12 424.585C862.813 425.039 862.581 425.572 862.422 426.184C862.263 426.797 862.184 427.455 862.184 428.158ZM883.156 423.53V438.009H878.256V419.6H882.85L883.156 423.53ZM882.441 428.158H881.114C881.114 426.797 881.29 425.572 881.642 424.483C881.993 423.383 882.487 422.447 883.122 421.676C883.757 420.893 884.511 420.298 885.385 419.889C886.269 419.47 887.256 419.26 888.345 419.26C889.207 419.26 889.995 419.385 890.71 419.634C891.424 419.884 892.037 420.281 892.547 420.825C893.069 421.37 893.466 422.09 893.738 422.986C894.022 423.882 894.164 424.976 894.164 426.269V438.009H889.23V426.252C889.23 425.436 889.116 424.801 888.889 424.347C888.663 423.893 888.328 423.576 887.886 423.394C887.455 423.201 886.921 423.105 886.286 423.105C885.628 423.105 885.056 423.235 884.568 423.496C884.092 423.757 883.695 424.12 883.377 424.585C883.071 425.039 882.838 425.572 882.679 426.184C882.521 426.797 882.441 427.455 882.441 428.158ZM907.088 438.349C905.659 438.349 904.377 438.122 903.243 437.669C902.109 437.203 901.145 436.563 900.351 435.746C899.568 434.929 898.967 433.982 898.547 432.905C898.128 431.816 897.918 430.659 897.918 429.434V428.753C897.918 427.358 898.116 426.082 898.513 424.925C898.91 423.768 899.477 422.765 900.215 421.914C900.963 421.063 901.871 420.411 902.937 419.957C904.003 419.492 905.205 419.26 906.544 419.26C907.848 419.26 909.005 419.475 910.015 419.906C911.024 420.337 911.869 420.95 912.55 421.744C913.241 422.538 913.763 423.491 914.115 424.602C914.466 425.702 914.642 426.927 914.642 428.277V430.319H900.011V427.052H909.827V426.678C909.827 425.997 909.703 425.39 909.453 424.857C909.215 424.313 908.852 423.882 908.364 423.564C907.876 423.247 907.253 423.088 906.493 423.088C905.846 423.088 905.29 423.23 904.825 423.513C904.36 423.797 903.98 424.194 903.685 424.704C903.402 425.215 903.186 425.816 903.039 426.508C902.903 427.188 902.835 427.937 902.835 428.753V429.434C902.835 430.171 902.937 430.852 903.141 431.476C903.357 432.099 903.657 432.638 904.043 433.092C904.44 433.546 904.916 433.897 905.472 434.147C906.039 434.396 906.68 434.521 907.394 434.521C908.279 434.521 909.101 434.351 909.861 434.011C910.633 433.659 911.296 433.132 911.852 432.428L914.234 435.014C913.848 435.57 913.321 436.103 912.652 436.614C911.994 437.124 911.2 437.544 910.27 437.873C909.34 438.19 908.279 438.349 907.088 438.349ZM925.763 434.521C926.365 434.521 926.898 434.408 927.363 434.181C927.828 433.943 928.191 433.614 928.452 433.194C928.724 432.763 928.866 432.258 928.877 431.68H933.488C933.476 432.973 933.13 434.124 932.45 435.133C931.769 436.132 930.856 436.92 929.711 437.498C928.565 438.066 927.283 438.349 925.865 438.349C924.436 438.349 923.189 438.111 922.122 437.634C921.068 437.158 920.189 436.5 919.485 435.661C918.782 434.81 918.255 433.823 917.903 432.701C917.552 431.566 917.376 430.353 917.376 429.06V428.566C917.376 427.262 917.552 426.048 917.903 424.925C918.255 423.791 918.782 422.804 919.485 421.965C920.189 421.114 921.068 420.451 922.122 419.974C923.177 419.498 924.414 419.26 925.831 419.26C927.34 419.26 928.661 419.549 929.796 420.128C930.941 420.706 931.837 421.534 932.484 422.612C933.142 423.678 933.476 424.942 933.488 426.406H928.877C928.866 425.793 928.735 425.237 928.486 424.738C928.247 424.239 927.896 423.842 927.431 423.547C926.977 423.241 926.416 423.088 925.746 423.088C925.032 423.088 924.448 423.241 923.994 423.547C923.54 423.842 923.189 424.25 922.939 424.772C922.69 425.283 922.514 425.867 922.412 426.525C922.321 427.171 922.276 427.852 922.276 428.566V429.06C922.276 429.774 922.321 430.46 922.412 431.118C922.502 431.776 922.673 432.36 922.922 432.871C923.183 433.381 923.54 433.784 923.994 434.079C924.448 434.374 925.037 434.521 925.763 434.521ZM946.072 419.6V423.071H935.353V419.6H946.072ZM938.007 415.058H942.907V432.462C942.907 432.995 942.975 433.404 943.112 433.687C943.259 433.971 943.474 434.169 943.758 434.283C944.042 434.385 944.399 434.436 944.83 434.436C945.136 434.436 945.408 434.425 945.647 434.402C945.896 434.368 946.106 434.334 946.276 434.3L946.293 437.907C945.873 438.043 945.42 438.151 944.932 438.23C944.444 438.309 943.906 438.349 943.316 438.349C942.238 438.349 941.297 438.173 940.491 437.822C939.697 437.459 939.085 436.88 938.654 436.086C938.223 435.292 938.007 434.249 938.007 432.956V415.058Z" fill="#4AB7D1"/>
<path d="M1004.75 424.559L999.013 418.824C998.749 418.55 998.602 418.184 998.606 417.803C998.609 417.422 998.762 417.058 999.031 416.789C999.3 416.52 999.664 416.367 1000.04 416.364C1000.43 416.361 1000.79 416.507 1001.07 416.771L1009.28 424.984C1009.41 425.119 1009.52 425.279 1009.59 425.455C1009.67 425.631 1009.71 425.82 1009.71 426.011C1009.71 426.201 1009.67 426.39 1009.59 426.567C1009.52 426.743 1009.41 426.903 1009.28 427.037L1001.07 435.25C1000.93 435.389 1000.77 435.499 1000.59 435.575C1000.42 435.652 1000.23 435.692 1000.03 435.693C999.842 435.695 999.65 435.658 999.472 435.585C999.294 435.512 999.132 435.404 998.995 435.268C998.859 435.132 998.751 434.97 998.678 434.791C998.605 434.613 998.568 434.422 998.57 434.229C998.572 434.036 998.612 433.846 998.688 433.668C998.764 433.491 998.875 433.331 999.013 433.197L1004.75 427.463H990.831C990.446 427.463 990.076 427.31 989.804 427.037C989.532 426.765 989.379 426.396 989.379 426.011C989.379 425.626 989.532 425.256 989.804 424.984C990.076 424.712 990.446 424.559 990.831 424.559H1004.75V424.559Z" fill="#4AB7D1"/>
<defs>
<linearGradient id="paint0_linear_105_1137" x1="898.125" y1="0" x2="898.125" y2="560.625" gradientUnits="userSpaceOnUse">
<stop stop-color="#3171DE"/>
<stop offset="1" stop-color="#4AB7D1"/>
</linearGradient>
</defs>
</svg>
